<?xml version="1.0" encoding="UTF-8"?>
<svg version="1.1" xmlns="http://www.w3.org/2000/svg" width="1024" height="1024">
<path d="M0 0 C337.92 0 675.84 0 1024 0 C1024 337.92 1024 675.84 1024 1024 C686.08 1024 348.16 1024 0 1024 C0 686.08 0 348.16 0 0 Z " fill="#050D18" transform="translate(0,0)"/>
<path d="M0 0 C1.06116028 -0.01004562 2.12232056 -0.02009125 3.21563721 -0.03044128 C4.96192162 -0.03918777 4.96192162 -0.03918777 6.7434845 -0.04811096 C8.5829213 -0.06278664 8.5829213 -0.06278664 10.45951843 -0.07775879 C14.52787831 -0.10773426 18.59620309 -0.1294098 22.66462708 -0.14796448 C23.35750517 -0.1512618 24.05038327 -0.15455912 24.76425767 -0.15795636 C31.30274854 -0.18873951 37.84124411 -0.21543837 44.37978649 -0.23237514 C52.73272363 -0.25426792 61.08501687 -0.2962125 69.43769664 -0.36581272 C75.31638606 -0.41312774 81.19490225 -0.43731871 87.07377607 -0.44457203 C90.58203921 -0.44951769 94.08957627 -0.46449204 97.59763145 -0.50431633 C101.51622969 -0.54821498 105.43400713 -0.54426909 109.3528595 -0.53639221 C110.50692795 -0.55639282 111.6609964 -0.57639343 112.85003662 -0.59700012 C120.34341984 -0.52944949 124.4932009 0.92778774 129.87165833 6.16062927 C130.46682345 6.71196313 131.06198858 7.26329699 131.67518902 7.83133793 C133.30526814 9.36037964 134.87232201 10.93711201 136.43415833 12.53562927 C137.22209778 13.32453552 137.22209778 13.32453552 138.0259552 14.12937927 C140.75542856 16.88884684 143.35670008 19.70912931 145.86775208 22.66844177 C151.65671406 29.35004553 158.09182298 35.4462901 164.37165833 41.66062927 C188.07390569 65.11567167 188.07390569 65.11567167 188.15313143 72.3508032 C188.15071634 73.05623138 188.14830126 73.76165956 188.14581299 74.48846436 C188.15104967 75.24069045 188.15628635 75.99291654 188.16168171 76.76793736 C188.1767202 79.29643031 188.17738773 81.82472157 188.17805481 84.35325623 C188.18567427 86.16347598 188.1941014 87.97369249 188.20327759 89.78390503 C188.22526394 94.71013633 188.23402826 99.63630552 188.23910403 104.56258035 C188.24274594 107.64371938 188.24898547 110.72484213 188.25610542 113.80597496 C188.28062448 124.56588327 188.29365492 135.32574329 188.29719543 146.0856781 C188.30082174 156.09498033 188.33064575 166.10397421 188.37260002 176.11318237 C188.40739193 184.71722274 188.4227455 193.32116151 188.42344147 201.92527169 C188.42423194 207.05886407 188.4328627 212.19214325 188.46143913 217.32566261 C188.48776889 222.16439616 188.48974239 227.00256042 188.47378349 231.84133339 C188.47198017 233.60766855 188.47855756 235.37403754 188.4946022 237.14030075 C188.60781464 250.42450585 187.48106248 262.08814564 178.55915833 272.72312927 C168.23017368 283.08609084 157.08683548 285.47862607 142.64208984 285.55610657 C141.23594506 285.54868271 139.82980186 285.54095173 138.42366028 285.53294373 C136.90941621 285.53537758 135.39517376 285.53910263 133.88093567 285.54400635 C129.80463818 285.55333536 125.72858416 285.54405917 121.65230584 285.53067422 C117.36842371 285.5192774 113.08455213 285.52347339 108.80065918 285.52542114 C101.61294116 285.52630125 94.42531796 285.51528093 87.23762512 285.49681091 C78.94530732 285.47562348 70.65312805 285.47214028 62.36078864 285.47837287 C54.35600806 285.48407961 46.3512759 285.478407 38.3465023 285.46719933 C34.95159694 285.46257314 31.55672138 285.46167083 28.16181374 285.46378517 C24.16192882 285.46567753 20.16218368 285.45749183 16.16233063 285.44172478 C14.70029211 285.43750596 13.23823935 285.43661507 11.77619743 285.43941498 C-1.15078236 285.46040451 -11.9403632 284.48948367 -21.95256042 275.52781677 C-28.47553308 268.46263228 -30.73382422 260.60932227 -31.12834167 251.16062927 C-25.12834167 251.16062927 -19.12834167 251.16062927 -13.12834167 251.16062927 C-13.89017761 250.92988708 -14.65201355 250.6991449 -15.43693542 250.46141052 C-27.33147926 246.70445723 -38.89958013 241.42853369 -45.83537292 230.46141052 C-50.03048277 222.17999771 -51.63147237 214.49954615 -49.44474792 205.27781677 C-47.19199806 198.71586488 -43.88327908 192.96634018 -40.12834167 187.16062927 C-39.18766588 185.70434241 -38.24992797 184.24615149 -37.31584167 182.78562927 C-36.71836121 181.87684021 -36.71836121 181.87684021 -36.10881042 180.94969177 C-34.02697463 177.15096351 -34.00210516 173.47466502 -33.99703979 169.20417786 C-33.99303162 167.98466431 -33.98902344 166.76515076 -33.9848938 165.50868225 C-33.98536887 164.16007993 -33.98590498 162.81147764 -33.98649597 161.46287537 C-33.9834632 160.04010409 -33.97994141 158.61733378 -33.97596741 157.19456482 C-33.96808535 154.13129443 -33.96293602 151.06803565 -33.95967674 148.00475693 C-33.95375626 143.1541413 -33.93720474 138.30359865 -33.91833496 133.45301819 C-33.91199762 131.79061703 -33.90567199 130.12821583 -33.8993578 128.46581459 C-33.89619198 127.63327321 -33.89302617 126.80073184 -33.88976443 125.94296193 C-33.84774046 114.65306329 -33.81473167 103.36319856 -33.80241394 92.07322693 C-33.79401646 84.45460897 -33.77146245 76.83617183 -33.73305827 69.21764433 C-33.71335211 65.18978117 -33.70087479 61.16218796 -33.70589256 57.13427353 C-33.7105612 53.34035897 -33.69661401 49.54695503 -33.66888046 45.75314331 C-33.66200536 44.36733298 -33.66180215 42.98146943 -33.66908073 41.59566116 C-33.7307864 28.5175304 -30.72540557 18.88282128 -21.46818542 9.47312927 C-15.3864909 3.93172196 -8.32291285 0.06193264 0 0 Z " fill="#060D19" transform="translate(181.1283416748047,346.83937072753906)"/>
<path d="M0 0 C1.06116028 -0.01004562 2.12232056 -0.02009125 3.21563721 -0.03044128 C4.96192162 -0.03918777 4.96192162 -0.03918777 6.7434845 -0.04811096 C8.5829213 -0.06278664 8.5829213 -0.06278664 10.45951843 -0.07775879 C14.52787831 -0.10773426 18.59620309 -0.1294098 22.66462708 -0.14796448 C23.35750517 -0.1512618 24.05038327 -0.15455912 24.76425767 -0.15795636 C31.30274854 -0.18873951 37.84124411 -0.21543837 44.37978649 -0.23237514 C52.73272363 -0.25426792 61.08501687 -0.2962125 69.43769664 -0.36581272 C75.31638606 -0.41312774 81.19490225 -0.43731871 87.07377607 -0.44457203 C90.58203921 -0.44951769 94.08957627 -0.46449204 97.59763145 -0.50431633 C101.51622969 -0.54821498 105.43400713 -0.54426909 109.3528595 -0.53639221 C110.50692795 -0.55639282 111.6609964 -0.57639343 112.85003662 -0.59700012 C120.34341984 -0.52944949 124.4932009 0.92778774 129.87165833 6.16062927 C130.46682345 6.71196313 131.06198858 7.26329699 131.67518902 7.83133793 C133.30526814 9.36037964 134.87232201 10.93711201 136.43415833 12.53562927 C137.22209778 13.32453552 137.22209778 13.32453552 138.0259552 14.12937927 C140.75542856 16.88884684 143.35670008 19.70912931 145.86775208 22.66844177 C151.65671406 29.35004553 158.09182298 35.4462901 164.37165833 41.66062927 C188.07390569 65.11567167 188.07390569 65.11567167 188.15313143 72.3508032 C188.15071634 73.05623138 188.14830126 73.76165956 188.14581299 74.48846436 C188.15104967 75.24069045 188.15628635 75.99291654 188.16168171 76.76793736 C188.1767202 79.29643031 188.17738773 81.82472157 188.17805481 84.35325623 C188.18567427 86.16347598 188.1941014 87.97369249 188.20327759 89.78390503 C188.22526394 94.71013633 188.23402826 99.63630552 188.23910403 104.56258035 C188.24274594 107.64371938 188.24898547 110.72484213 188.25610542 113.80597496 C188.28062448 124.56588327 188.29365492 135.32574329 188.29719543 146.0856781 C188.30082174 156.09498033 188.33064575 166.10397421 188.37260002 176.11318237 C188.40739193 184.71722274 188.4227455 193.32116151 188.42344147 201.92527169 C188.42423194 207.05886407 188.4328627 212.19214325 188.46143913 217.32566261 C188.48776889 222.16439616 188.48974239 227.00256042 188.47378349 231.84133339 C188.47198017 233.60766855 188.47855756 235.37403754 188.4946022 237.14030075 C188.60781464 250.42450585 187.48106248 262.08814564 178.55915833 272.72312927 C168.23017368 283.08609084 157.08683548 285.47862607 142.64208984 285.55610657 C141.23594506 285.54868271 139.82980186 285.54095173 138.42366028 285.53294373 C136.90941621 285.53537758 135.39517376 285.53910263 133.88093567 285.54400635 C129.80463818 285.55333536 125.72858416 285.54405917 121.65230584 285.53067422 C117.36842371 285.5192774 113.08455213 285.52347339 108.80065918 285.52542114 C101.61294116 285.52630125 94.42531796 285.51528093 87.23762512 285.49681091 C78.94530732 285.47562348 70.65312805 285.47214028 62.36078864 285.47837287 C54.35600806 285.48407961 46.3512759 285.478407 38.3465023 285.46719933 C34.95159694 285.46257314 31.55672138 285.46167083 28.16181374 285.46378517 C24.16192882 285.46567753 20.16218368 285.45749183 16.16233063 285.44172478 C14.70029211 285.43750596 13.23823935 285.43661507 11.77619743 285.43941498 C-1.15078236 285.46040451 -11.9403632 284.48948367 -21.95256042 275.52781677 C-28.5456104 268.38672989 -30.59218926 260.67733459 -31.12834167 251.16062927 C-26.50834167 252.15062927 -21.88834167 253.14062927 -17.12834167 254.16062927 C-16.88084167 255.54250427 -16.63334167 256.92437927 -16.37834167 258.34812927 C-15.39510133 262.58669239 -14.49282206 265.21670893 -11.12834167 268.16062927 C-3.12288425 272.65212593 4.80144426 272.73388465 13.76960754 272.6782074 C15.24913722 272.68363809 16.72866148 272.69076603 18.20817566 272.69944763 C22.20013413 272.71757488 26.19167585 272.71065691 30.18364096 272.69793129 C34.37939094 272.68774446 38.57510725 272.697213 42.77085876 272.70347595 C49.81673021 272.71073752 56.86243354 272.70120564 63.90827942 272.68211365 C72.02791082 272.66036463 80.14714006 272.66738784 88.26676166 272.68941927 C95.26330603 272.70763618 102.2597301 272.7101005 109.25629056 272.69966459 C113.42385062 272.6934619 117.59122239 272.692504 121.75876999 272.70581055 C125.68079591 272.71745995 129.60230935 272.70917983 133.52428055 272.68623352 C134.95441593 272.68099375 136.38459527 272.6823779 137.81471252 272.69128418 C148.57697732 272.75207102 160.38720911 271.92749074 168.48707199 263.94328117 C175.04390301 255.50137546 174.45202445 245.27072117 174.41755676 235.14451599 C174.42630378 233.43861962 174.43679348 231.73273143 174.44888306 230.02685547 C174.47662551 225.42215666 174.48015035 220.81772713 174.47916317 216.21295691 C174.48230242 211.3909392 174.50794163 206.56904096 174.53114319 201.74708557 C174.57162939 192.62780856 174.59202653 183.50860293 174.60511708 174.38924992 C174.62101216 164.00221103 174.65943834 153.61529317 174.69971037 143.22832465 C174.78200829 121.87246616 174.8361635 100.51661349 174.87165833 79.16062927 C173.77289368 79.18157654 172.67412903 79.2025238 171.54206848 79.22410583 C167.42338858 79.29709755 163.30476456 79.34264167 159.18562317 79.38035583 C157.41078543 79.40033767 155.63601239 79.42753282 153.86140442 79.46238708 C132.42919921 79.87245742 132.42919921 79.87245742 123.99665833 72.72312927 C123.29540833 71.87750427 122.59415833 71.03187927 121.87165833 70.16062927 C121.14978333 69.35625427 120.42790833 68.55187927 119.68415833 67.72312927 C115.36501762 61.61675793 115.6019256 55.48200005 115.67634583 48.29344177 C115.67917572 47.25871735 115.68200562 46.22399292 115.68492126 45.15791321 C115.69607785 41.86703214 115.72117435 38.5764275 115.74665833 35.28562927 C115.75669396 33.04865405 115.76581879 30.81167454 115.77400208 28.57469177 C115.79600237 23.10324397 115.82943494 17.63195638 115.87165833 12.16062927 C101.31087213 12.22130461 86.75025699 12.29890318 72.18966866 12.39634418 C65.42808217 12.44120398 58.6665472 12.48064088 51.90486145 12.50706482 C45.37545885 12.53259655 38.84625729 12.57356701 32.31699753 12.62381554 C29.83006028 12.64045799 27.34308324 12.65198854 24.85609818 12.65824318 C21.36380817 12.66791247 17.87210381 12.69600697 14.37995911 12.72825623 C12.84893806 12.72610359 12.84893806 12.72610359 11.2869873 12.72390747 C1.74862042 12.84789683 -6.40930916 14.4804982 -13.43693542 21.19578552 C-18.66806114 27.27258976 -20.25610819 33.8780216 -20.24859619 41.77313232 C-20.24997086 42.89067398 -20.25134552 44.00821564 -20.25276184 45.15962219 C-20.24916656 46.3759433 -20.24557129 47.5922644 -20.24186707 48.84544373 C-20.24201309 50.13364517 -20.24215912 51.42184662 -20.24230957 52.74908447 C-20.24259608 56.27348339 -20.23672304 59.79784817 -20.22973561 63.32223916 C-20.22347768 67.0084543 -20.22289634 70.69467026 -20.22171021 74.38088989 C-20.21860409 81.35767647 -20.21040039 88.33444735 -20.20036072 95.31122702 C-20.18917725 103.25556692 -20.1836835 111.19990757 -20.17866528 119.14425337 C-20.16821718 135.48305452 -20.15063166 151.82183989 -20.12834167 168.16062927 C-18.60201111 167.43746521 -18.60201111 167.43746521 -17.04484558 166.69969177 C-15.68993029 166.06153254 -14.33494616 165.42351944 -12.97990417 164.78562927 C-12.31160583 164.4685199 -11.6433075 164.15141052 -10.95475769 163.82469177 C2.78565294 157.37048054 2.78565294 157.37048054 9.87165833 159.16062927 C9.87165833 160.48062927 9.87165833 161.80062927 9.87165833 163.16062927 C8.65542786 163.77937927 8.65542786 163.77937927 7.41462708 164.41062927 C-8.31740569 172.61546126 -27.44003095 184.27168946 -33.12834167 202.16062927 C-33.93845692 210.04512301 -34.19216921 217.701975 -29.12834167 224.16062927 C-20.31565483 234.48406243 -5.12876247 238.22607937 7.9030304 239.33320618 C12.76747629 239.60263178 17.62664684 239.59104601 22.49665833 239.53562927 C23.23866486 239.53064423 23.98067139 239.52565918 24.74516296 239.52052307 C62.74555192 239.22253474 100.90917577 228.73721009 129.87165833 203.16062927 C130.58837708 202.53801208 131.30509583 201.9153949 132.04353333 201.27391052 C139.42774232 194.43102512 144.81403825 185.7521188 145.24665833 175.53562927 C145.20428208 168.38463797 141.73939229 162.96223022 137.87165833 157.16062927 C144.13793602 158.68898969 148.6433077 161.80176646 152.20368958 167.16844177 C156.48798294 175.61591773 155.68955292 184.5601786 152.96150208 193.41062927 C144.00988337 215.99822629 119.71577845 229.86270201 98.55525208 239.1806488 C62.67591848 254.18934945 14.84042139 262.11414974 -22.56584167 248.24266052 C-33.79960286 243.49913636 -43.21077004 236.70892156 -48.28849792 225.32469177 C-51.62398372 216.72999815 -50.83936205 208.2724991 -47.39787292 199.82078552 C-45.28617871 195.39597395 -42.7885919 191.2737854 -40.12834167 187.16062927 C-39.18766588 185.70434241 -38.24992797 184.24615149 -37.31584167 182.78562927 C-36.71836121 181.87684021 -36.71836121 181.87684021 -36.10881042 180.94969177 C-34.02697463 177.15096351 -34.00210516 173.47466502 -33.99703979 169.20417786 C-33.99303162 167.98466431 -33.98902344 166.76515076 -33.9848938 165.50868225 C-33.98536887 164.16007993 -33.98590498 162.81147764 -33.98649597 161.46287537 C-33.9834632 160.04010409 -33.97994141 158.61733378 -33.97596741 157.19456482 C-33.96808535 154.13129443 -33.96293602 151.06803565 -33.95967674 148.00475693 C-33.95375626 143.1541413 -33.93720474 138.30359865 -33.91833496 133.45301819 C-33.91199762 131.79061703 -33.90567199 130.12821583 -33.8993578 128.46581459 C-33.89619198 127.63327321 -33.89302617 126.80073184 -33.88976443 125.94296193 C-33.84774046 114.65306329 -33.81473167 103.36319856 -33.80241394 92.07322693 C-33.79401646 84.45460897 -33.77146245 76.83617183 -33.73305827 69.21764433 C-33.71335211 65.18978117 -33.70087479 61.16218796 -33.70589256 57.13427353 C-33.7105612 53.34035897 -33.69661401 49.54695503 -33.66888046 45.75314331 C-33.66200536 44.36733298 -33.66180215 42.98146943 -33.66908073 41.59566116 C-33.7307864 28.5175304 -30.72540557 18.88282128 -21.46818542 9.47312927 C-15.3864909 3.93172196 -8.32291285 0.06193264 0 0 Z " fill="#145EDD" transform="translate(181.1283416748047,346.83937072753906)"/>
<path d="M0 0 C2.1953125 0.04003906 2.1953125 0.04003906 4.375 0.7421875 C7.38497883 3.95902093 9.29949138 7.75399162 11.375 11.6171875 C12.34595308 13.32743933 13.31698062 15.03765319 14.29205322 16.74555969 C15.31017473 18.53509546 16.31636415 20.331014 17.32226562 22.12744141 C20.60232812 27.94616901 24.11526972 33.62224713 27.625 39.3046875 C28.29748779 40.39676514 28.96997559 41.48884277 29.6628418 42.61401367 C35.85139198 52.61183711 42.1890303 62.52522329 49.52734375 71.7265625 C50.04514404 72.38954346 50.56294434 73.05252441 51.09643555 73.7355957 C52.07972675 74.98618632 53.08379456 76.22085876 54.11254883 77.43432617 C56.65935095 80.68334253 57.71958755 82.89477252 57.390625 87.0703125 C56.49203442 92.11554645 54.76863105 96.80822585 52.875 101.5546875 C52.51752686 102.46702148 52.16005371 103.37935547 51.79174805 104.31933594 C41.72824974 129.6890588 29.46325286 153.98680615 14.375 176.7421875 C13.39578274 178.23173757 12.41661553 179.72132055 11.4375 181.2109375 C4.69329407 191.42389343 4.69329407 191.42389343 3.375 192.7421875 C0.10546875 193.1953125 0.10546875 193.1953125 -3.625 192.7421875 C-5.64324607 190.61771795 -6.86846011 188.97125814 -8.3125 186.4921875 C-8.72838379 185.82251953 -9.14426758 185.15285156 -9.57275391 184.46289062 C-10.47366544 183.00252867 -11.36254328 181.53469057 -12.24072266 180.06054688 C-13.63666259 177.72265524 -15.06980107 175.41133227 -16.51171875 173.1015625 C-24.20867342 160.65808916 -31.05857409 147.81206364 -37.625 134.7421875 C-38.00640137 133.98873047 -38.38780273 133.23527344 -38.78076172 132.45898438 C-43.21646866 123.63256153 -46.9715721 114.59260788 -50.5 105.3671875 C-50.8818042 104.38049072 -51.2636084 103.39379395 -51.65698242 102.37719727 C-52.72384862 99.51789984 -53.70248837 96.65112928 -54.625 93.7421875 C-54.92494873 92.80246094 -55.22489746 91.86273438 -55.53393555 90.89453125 C-56.52223819 87.04990326 -57.1717269 84.14578139 -55.703125 80.37548828 C-54.17752472 77.92895918 -52.50281755 75.73197415 -50.6875 73.4921875 C-49.37375074 71.74899119 -48.06399932 70.0027763 -46.7578125 68.25390625 C-45.73155762 66.90304932 -45.73155762 66.90304932 -44.68457031 65.52490234 C-41.27433744 60.91728804 -38.16984487 56.11965039 -35.0625 51.3046875 C-34.43972168 50.34449707 -33.81694336 49.38430664 -33.17529297 48.39501953 C-24.33977879 34.72259533 -15.77544117 20.88638646 -7.60620117 6.80517578 C-4.14596447 0.84885048 -4.14596447 0.84885048 0 0 Z " fill="#2B7EED" transform="translate(253.625,385.2578125)"/>
<path d="M0 0 C11.43584685 8.90829492 20.46428263 21.29696392 22.52734375 35.96875 C23.58496128 48.34310649 23.60522039 60.46109451 18.52734375 71.96875 C17.93179688 73.34933594 17.93179688 73.34933594 17.32421875 74.7578125 C14.97716649 79.79357652 12.28737018 83.88643559 8.52734375 87.96875 C9.96722881 92.37738686 12.38674657 95.47304097 15.40234375 98.90625 C18.75751713 102.76420158 21.77011264 106.66618703 24.52734375 110.96875 C8.63300413 112.3442217 8.63300413 112.3442217 3.62109375 109.0703125 C1.64372376 106.79043442 0.04014584 104.57563218 -1.47265625 101.96875 C-2.13265625 100.97875 -2.79265625 99.98875 -3.47265625 98.96875 C-4.02953125 99.16210938 -4.58640625 99.35546875 -5.16015625 99.5546875 C-6.30484375 99.94527344 -6.30484375 99.94527344 -7.47265625 100.34375 C-8.21515625 100.59898437 -8.95765625 100.85421875 -9.72265625 101.1171875 C-16.95844131 103.35781412 -23.22106025 104.32911104 -30.78515625 104.28125 C-31.71577881 104.27561035 -32.64640137 104.2699707 -33.60522461 104.26416016 C-40.2961094 104.1458618 -46.24420833 103.57050673 -52.47265625 100.96875 C-53.9421875 100.36546875 -53.9421875 100.36546875 -55.44140625 99.75 C-68.37654119 93.87039321 -79.34170553 83.40043877 -84.47265625 69.96875 C-89.65790612 53.8343888 -89.00256815 36.13687242 -81.78515625 20.71875 C-74.58851337 7.40673324 -64.75702432 -1.84223466 -50.47265625 -7.03125 C-33.5921446 -12.05836162 -14.58570872 -10.10933116 0 0 Z " fill="#3F9EF8" transform="translate(510.47265625,443.03125)"/>
<path d="M0 0 C59.32692308 0 59.32692308 0 76.12890625 16.03125 C88.39502303 28.87925088 90.71185284 43.34347497 90.37890625 60.390625 C89.84606681 71.64327721 86.27020326 82.27575609 79 91 C78.54625 91.598125 78.0925 92.19625 77.625 92.8125 C69.54436778 102.23990426 54.84225742 107.30824894 43 109 C28.81 109 14.62 109 0 109 C0 73.03 0 37.06 0 0 Z " fill="#419FF8" transform="translate(583,436)"/>
<path d="M0 0 C8.70056039 6.05751225 14.54375075 14.56147522 17.125 24.875 C18.61936105 37.4121442 17.41027517 49.25480131 9.91796875 59.70703125 C3.45678486 67.51957386 -3.95041518 72.65287298 -13.875 74.875 C-27.70042857 75.84278 -38.33494903 74.87971654 -49.3125 65.5625 C-53.30434505 61.69220151 -56.45768283 57.88651121 -58.875 52.875 C-59.19210937 52.25882813 -59.50921875 51.64265625 -59.8359375 51.0078125 C-63.67615779 41.95334814 -63.37109095 29.19209204 -60.375 19.9375 C-55.42218126 8.6415976 -48.07056965 0.56751428 -36.5625 -3.9375 C-24.17625682 -7.92629018 -11.33436723 -6.70111424 0 0 Z " fill="#3E9DF7" transform="translate(745.875,472.125)"/>
<path d="M0 0 C7.2912718 5.73510108 12.48670982 14.84987573 14.25 23.875 C15.54774483 36.94047908 14.85772981 49.71300272 7.25 60.875 C6.59 60.875 5.93 60.875 5.25 60.875 C4.25 59.04166667 3.25 57.20833333 2.25 55.375 C-0.529682 51.31349757 -0.529682 51.31349757 -4.88671875 49.35400391 C-10.20414268 48.88883774 -15.45451014 49.31490011 -20.75 49.875 C-20.01394531 50.720625 -19.27789062 51.56625 -18.51953125 52.4375 C-13.42537268 58.34136075 -8.61992343 64.06927258 -4.75 70.875 C-11.87086911 76.72428534 -21.97675342 75.57733056 -30.75 74.875 C-39.95120551 73.07382062 -47.86500734 67.88856201 -53.625 60.5 C-60.38499431 50.12690528 -60.99079033 36.56053228 -59.2890625 24.6484375 C-56.81496488 13.38401658 -51.31338599 4.46311035 -41.75 -2.125 C-28.7556553 -9.42658416 -12.37252808 -7.67479115 0 0 Z " fill="#060D18" transform="translate(500.75,456.125)"/>
<path d="M0 0 C33.11281071 0 33.11281071 0 44.26953125 10.04296875 C52.91725567 19.10783758 55.34933778 29.27110658 55.2109375 41.51953125 C54.53988887 52.59183359 50.89429566 61.47089953 42.9375 69.25 C30.67083249 79.03607475 14.80889525 78 0 78 C0 52.26 0 26.52 0 0 Z " fill="#060D18" transform="translate(601,452)"/>
<path d="M0 0 C5.39666869 4.2217482 7.92172321 9.04247392 9.7421875 15.59375 C9.7421875 16.25375 9.7421875 16.91375 9.7421875 17.59375 C8.1598869 17.93195166 6.57629375 18.26410939 4.9921875 18.59375 C4.11046875 18.779375 3.22875 18.965 2.3203125 19.15625 C-0.2578125 19.59375 -0.2578125 19.59375 -4.2578125 19.59375 C-4.47695313 19.03945313 -4.69609375 18.48515625 -4.921875 17.9140625 C-6.96307875 13.17699819 -6.96307875 13.17699819 -10.9453125 10.09375 C-17.76923747 9.06372359 -23.25494222 8.64064031 -29.2578125 12.59375 C-31.54335281 15.47112082 -31.54335281 15.47112082 -31.4453125 19.03125 C-30.57724212 22.89087943 -30.57724212 22.89087943 -26.8828125 24.71875 C-23.55066644 25.97970704 -20.16300863 26.8921374 -16.71484375 27.76953125 C-15.48096924 28.08349854 -15.48096924 28.08349854 -14.22216797 28.40380859 C-12.57303369 28.81330377 -10.91970443 29.20635718 -9.26220703 29.58056641 C-1.46823784 31.45041642 5.25976518 34.69771566 9.7421875 41.59375 C12.69808053 47.9430509 12.76911549 55.06503 10.8046875 61.78125 C8.21898749 67.65344723 3.13317783 71.74692649 -2.40234375 74.76171875 C-11.44355253 78.1343588 -25.50653256 78.67151404 -34.5078125 74.96875 C-36.47265625 73.84375 -36.47265625 73.84375 -38.2578125 72.59375 C-38.89847656 72.18125 -39.53914062 71.76875 -40.19921875 71.34375 C-45.39298771 67.5270346 -47.49237153 62.69055234 -49.2578125 56.59375 C-49.2578125 55.93375 -49.2578125 55.27375 -49.2578125 54.59375 C-47.69664431 54.25423381 -46.13379912 53.92242456 -44.5703125 53.59375 C-43.70019531 53.408125 -42.83007812 53.2225 -41.93359375 53.03125 C-39.32068286 52.60402953 -36.89968212 52.51758799 -34.2578125 52.59375 C-33.671875 54.31901042 -33.0859375 56.04427083 -32.5 57.76953125 C-30.57849882 60.59135845 -28.40566463 61.3716427 -25.2578125 62.59375 C-21.8058393 63.02764989 -21.8058393 63.02764989 -18.2578125 62.90625 C-16.494375 62.90044922 -16.494375 62.90044922 -14.6953125 62.89453125 C-11.204496 62.58908481 -8.45865591 62.01793479 -5.2578125 60.59375 C-4.06026433 57.00110548 -3.92686292 54.36657526 -4.2578125 50.59375 C-7.30610291 46.53192223 -11.0448075 45.40328893 -15.7578125 44.09375 C-17.19540415 43.66436924 -18.63290338 43.23467891 -20.0703125 42.8046875 C-22.60812612 42.06526089 -25.14945461 41.3444955 -27.6953125 40.6328125 C-35.12542678 38.41515084 -41.37420792 35.55941483 -45.41015625 28.609375 C-47.82333878 22.87111607 -48.03727559 17.45461884 -46.0703125 11.53125 C-42.95490784 4.12859123 -38.82916098 0.98835419 -31.7578125 -2.42578125 C-21.78819692 -6.33573986 -9.1345059 -5.68931163 0 0 Z " fill="#3C9BF6" transform="translate(901.2578125,470.40625)"/>
<path d="M0 0 C7.40282799 4.96628569 12.84008992 10.12756855 16.171875 18.45703125 C10.87388536 20.53838432 5.71623629 22.16994738 0.171875 23.45703125 C-0.13105469 22.91433594 -0.43398438 22.37164062 -0.74609375 21.8125 C-1.16503906 21.09707031 -1.58398438 20.38164062 -2.015625 19.64453125 C-2.42167969 18.93683594 -2.82773437 18.22914063 -3.24609375 17.5 C-6.08843091 13.8295251 -8.73718761 12.60362978 -13.31640625 11.98828125 C-22.83118633 11.78106312 -22.83118633 11.78106312 -31.24609375 15.76171875 C-37.9755282 22.97301394 -39.14550662 30.62735286 -39.0390625 40.1328125 C-38.53050194 48.14735028 -35.76674297 54.03289751 -29.828125 59.45703125 C-24.29221714 63.64271768 -17.46742115 63.20942969 -10.828125 62.45703125 C-6.44059644 60.99950473 -3.16804878 58.48689998 -0.828125 54.45703125 C-0.498125 53.46703125 -0.168125 52.47703125 0.171875 51.45703125 C2.63225993 51.9060066 5.08977121 52.36571958 7.546875 52.83203125 C8.59488281 53.02152344 8.59488281 53.02152344 9.6640625 53.21484375 C14.9453125 54.23046875 14.9453125 54.23046875 17.171875 56.45703125 C11.36087909 67.2275951 4.87080953 73.55738641 -6.828125 77.45703125 C-20.62145476 78.79651871 -32.41338529 77.74974273 -43.640625 69.01953125 C-51.65092384 61.38859082 -55.8657449 50.50316548 -56.17211914 39.60302734 C-56.33238522 25.9261476 -53.92159215 16.68384609 -44.1640625 6.5859375 C-33.02744189 -3.56365821 -13.844822 -6.94695856 0 0 Z " fill="#3E9DF7" transform="translate(829.828125,469.54296875)"/>
<path d="M0 0 C5.71587686 3.39569006 9.58965611 9.24070439 11.5625 15.5 C12.38549075 24.40935332 12.67241905 33.77106951 7.5625 41.5 C3.10395552 46.47979394 -1.48796101 50.03150296 -8.26953125 50.8359375 C-14.82161699 50.92181018 -20.17750071 50.70330301 -25.4375 46.5 C-32.38939303 39.20671937 -33.87989 31.82949372 -33.87353516 21.97949219 C-33.69149412 14.77564588 -31.8591629 9.26203774 -26.9453125 3.859375 C-19.79396175 -2.58795676 -8.7988109 -3.83886344 0 0 Z " fill="#060D18" transform="translate(734.4375,482.5)"/>
<path d="M0 0 C5.28 0 10.56 0 16 0 C16 25.41 16 50.82 16 77 C10.72 77 5.44 77 0 77 C0 51.59 0 26.18 0 0 Z " fill="#3FA2F9" transform="translate(547,468)"/>
<path d="M0 0 C1 2 1 2 0.23071289 4.35986328 C-0.1844458 5.33681152 -0.59960449 6.31375977 -1.02734375 7.3203125 C-1.4857666 8.40513916 -1.94418945 9.48996582 -2.41650391 10.60766602 C-2.91843262 11.76838623 -3.42036133 12.92910645 -3.9375 14.125 C-4.44458496 15.30827881 -4.95166992 16.49155762 -5.47412109 17.71069336 C-9.05008333 25.98173019 -12.7982334 34.11501762 -16.99658203 42.08740234 C-18.0954571 44.18194913 -19.17091444 46.28773 -20.24609375 48.39453125 C-28.36606139 64.1755565 -28.36606139 64.1755565 -34 71 C-34.33 71 -34.66 71 -35 71 C-35.34963116 65.25721211 -35.60162663 59.5207658 -35.76904297 53.76977539 C-35.83888643 51.82043484 -35.93401665 49.8718127 -36.05615234 47.92504883 C-37.09491517 30.92512786 -37.09491517 30.92512786 -32.08276367 24.94677734 C-28.68977826 21.54354026 -24.91779489 18.76170447 -21 16 C-19.59696494 14.84357399 -18.2000657 13.67954018 -16.81640625 12.5 C-15.73693239 11.6599913 -14.65266433 10.82608726 -13.5625 10 C-13.01658203 9.57589844 -12.47066406 9.15179688 -11.90820312 8.71484375 C-8.01159098 5.70612552 -4.01771659 2.84440113 0 0 Z " fill="#060C18" transform="translate(294,482)"/>
<path d="M0 0 C5.57348111 2.78674055 9.75216701 6.33584992 14.3125 10.5625 C17.87007758 13.78914013 21.6006862 16.77389876 25.359375 19.76171875 C26.66648438 20.86966797 26.66648438 20.86966797 28 22 C28.51142548 22.39186996 29.02285095 22.78373993 29.54977417 23.18748474 C32.02499774 25.29098695 33.74200684 26.94157092 34.52600098 30.15794373 C34.69290402 32.71679 34.6753359 35.21071231 34.5859375 37.7734375 C34.57744781 38.6971817 34.56895813 39.6209259 34.56021118 40.57266235 C34.5267631 43.50798764 34.45150164 46.44051261 34.375 49.375 C34.34488921 51.37105393 34.31751536 53.36715114 34.29296875 55.36328125 C34.22700005 60.24325789 34.12353912 65.12115506 34 70 C21.06800688 54.24213963 0 20.93909606 0 0 Z " fill="#060C17" transform="translate(214,483)"/>
<path d="M0 0 C5.21933215 4.36562185 10.09937637 8.95238532 14.90234375 13.76953125 C15.6249086 14.49113937 16.34747345 15.2127475 17.0919342 15.95622253 C18.60491691 17.46852918 20.11665536 18.98208158 21.62719727 20.49682617 C23.95149733 22.82652987 26.281148 25.15078851 28.61132812 27.47460938 C30.0836545 28.94759571 31.5556711 30.42089177 33.02734375 31.89453125 C33.72721909 32.59238235 34.42709442 33.29023346 35.1481781 34.00923157 C35.78626907 34.6504747 36.42436005 35.29171783 37.08178711 35.95239258 C37.92947914 36.801278 37.92947914 36.801278 38.79429626 37.66731262 C40 39 40 39 40 40 C35.71343866 40.14925086 31.42828527 40.2576289 27.13989258 40.32958984 C25.68389517 40.35961041 24.22807631 40.40044228 22.77270508 40.45263672 C9.12975393 40.92936882 9.12975393 40.92936882 4.62890625 37.3515625 C1.15305578 33.86700935 0.10885787 29.55889159 -0.22705078 24.74853516 C-0.21657715 23.60690918 -0.20610352 22.4652832 -0.1953125 21.2890625 C-0.18886719 20.04511719 -0.18242187 18.80117188 -0.17578125 17.51953125 C-0.15902344 16.23433594 -0.14226562 14.94914062 -0.125 13.625 C-0.11597656 12.31660156 -0.10695313 11.00820313 -0.09765625 9.66015625 C-0.07415085 6.4399163 -0.04129087 3.22005293 0 0 Z " fill="#060C17" transform="translate(309,372)"/>
<path d="M0 0 C4.63270641 9.26541282 -6.31089277 31.61517293 -9.5625 41.375 C-9.79956665 42.09132599 -10.0366333 42.80765198 -10.28088379 43.54568481 C-12.74043162 50.94244749 -15.23501664 58.1433009 -19 65 C-22.63487252 63.23742974 -25.89761457 61.13421627 -29.25 58.875 C-30.32765625 58.15054688 -31.4053125 57.42609375 -32.515625 56.6796875 C-33.33546875 56.12539063 -34.1553125 55.57109375 -35 55 C-34.39752443 51.91257771 -33.4469355 49.94298428 -31.55078125 47.4453125 C-31.03918457 46.75896729 -30.52758789 46.07262207 -30.00048828 45.36547852 C-29.44345215 44.62612061 -28.88641602 43.8867627 -28.3125 43.125 C-21.28317346 33.60714611 -14.94854208 23.7099223 -8.68066406 13.68017578 C-5.81147807 9.10464937 -2.90490141 4.55290584 0 0 Z " fill="#060C16" transform="translate(248,414)"/>
<path d="M0 0 C2.55061415 2.33316766 4.21142743 4.79298575 5.96875 7.76171875 C6.53440674 8.70813232 7.10006348 9.6545459 7.68286133 10.62963867 C8.28251709 11.63873291 8.88217285 12.64782715 9.5 13.6875 C17.93107649 27.7014491 27.04924807 41.02716785 37 54 C33.6222978 57.5259012 30.16533264 60.48488403 26.1875 63.3125 C25.21167969 64.00988281 24.23585938 64.70726562 23.23046875 65.42578125 C22.49441406 65.94527344 21.75835937 66.46476562 21 67 C17.50325535 63.50325535 16.45328208 58.53292608 14.8125 53.9375 C14.41466309 52.82584473 14.01682617 51.71418945 13.60693359 50.56884766 C7.8115428 34.08247985 2.94368646 17.2415921 0 0 Z " fill="#060D18" transform="translate(258,413)"/>
<path d="M0 0 C2.1953125 0.04003906 2.1953125 0.04003906 4.375 0.7421875 C7.38489018 3.95892619 9.30020653 7.7537199 11.375 11.6171875 C12.33531243 13.31381338 13.29570945 15.01039641 14.26046753 16.70449829 C14.9310305 17.88543682 15.59774196 19.06856982 16.26077271 20.25375366 C20.04358315 27.00694899 24.14899792 33.55432706 28.25 40.1171875 C29.60483564 42.28962881 30.95665979 44.46395274 32.3046875 46.640625 C32.87429199 47.55505371 33.44389648 48.46948242 34.03076172 49.41162109 C35.375 51.7421875 35.375 51.7421875 36.375 54.7421875 C35.715 54.7421875 35.055 54.7421875 34.375 54.7421875 C33.88 52.7621875 33.88 52.7621875 33.375 50.7421875 C32.715 50.7421875 32.055 50.7421875 31.375 50.7421875 C31.045 49.7521875 30.715 48.7621875 30.375 47.7421875 C29.385 46.783125 29.385 46.783125 28.375 45.8046875 C26.375 43.7421875 26.375 43.7421875 25.875 41.6171875 C25.71 40.9984375 25.545 40.3796875 25.375 39.7421875 C24.75625 39.4328125 24.1375 39.1234375 23.5 38.8046875 C20.54186211 37.32561855 19.73162079 35.72675323 18.375 32.7421875 C18.1875 29.4296875 18.1875 29.4296875 18.375 26.7421875 C17.715 26.7421875 17.055 26.7421875 16.375 26.7421875 C16.375 25.7521875 16.375 24.7621875 16.375 23.7421875 C15.75625 23.5153125 15.1375 23.2884375 14.5 23.0546875 C11.67706434 21.3111096 11.52207956 19.84604983 10.375 16.7421875 C9.09817134 14.63035343 7.7599919 12.56979087 6.3984375 10.51171875 C5.375 8.7421875 5.375 8.7421875 5.375 6.7421875 C2.5121644 5.26121504 2.5121644 5.26121504 -0.625 4.7421875 C-3.47864379 7.10862381 -5.40576269 9.37679199 -7.3125 12.5546875 C-7.745625 13.2765625 -8.17875 13.9984375 -8.625 14.7421875 C-9.285 14.7421875 -9.945 14.7421875 -10.625 14.7421875 C-10.728125 15.6084375 -10.83125 16.4746875 -10.9375 17.3671875 C-11.66215458 20.92458272 -12.9241156 23.55302925 -14.625 26.7421875 C-15.12 28.2271875 -15.12 28.2271875 -15.625 29.7421875 C-16.40875 30.5053125 -17.1925 31.2684375 -18 32.0546875 C-21.43761055 35.57414592 -23.08292528 39.11596334 -24.625 43.7421875 C-25.40875 44.4846875 -26.1925 45.2271875 -27 45.9921875 C-30.04267795 49.17975487 -31.10308321 51.65704244 -32.625 55.7421875 C-33.285 55.7421875 -33.945 55.7421875 -34.625 55.7421875 C-34.893125 56.3815625 -35.16125 57.0209375 -35.4375 57.6796875 C-36.625 59.7421875 -36.625 59.7421875 -39.625 60.7421875 C-39.625 61.7321875 -39.625 62.7221875 -39.625 63.7421875 C-40.285 63.7421875 -40.945 63.7421875 -41.625 63.7421875 C-41.3775 64.3196875 -41.13 64.8971875 -40.875 65.4921875 C-40.7925 66.2346875 -40.71 66.9771875 -40.625 67.7421875 C-41.9098951 69.12226001 -43.25515802 70.44639103 -44.625 71.7421875 C-45.30013781 72.93439515 -45.9447147 74.14427644 -46.5625 75.3671875 C-48.73188417 78.91708888 -49.68512853 79.75721963 -53.625 80.7421875 C-52.4893692 87.49620225 -50.69773688 93.68350752 -48.234375 100.078125 C-47.625 102.7421875 -47.625 102.7421875 -48.515625 105.09375 C-48.88171875 105.63773437 -49.2478125 106.18171875 -49.625 106.7421875 C-50.42978128 104.8100981 -51.21800609 102.87111169 -52 100.9296875 C-52.44085938 99.85074219 -52.88171875 98.77179688 -53.3359375 97.66015625 C-53.78531104 96.36080889 -54.21276844 95.05379159 -54.625 93.7421875 C-54.89530029 92.89124512 -55.16560059 92.04030273 -55.4440918 91.16357422 C-56.44335328 87.26669291 -57.18251025 84.19317034 -55.70898438 80.3581543 C-54.17441786 77.92605582 -52.4981787 75.72625062 -50.6875 73.4921875 C-49.37375074 71.74899119 -48.06399932 70.0027763 -46.7578125 68.25390625 C-45.73155762 66.90304932 -45.73155762 66.90304932 -44.68457031 65.52490234 C-41.27433744 60.91728804 -38.16984487 56.11965039 -35.0625 51.3046875 C-34.43972168 50.34449707 -33.81694336 49.38430664 -33.17529297 48.39501953 C-24.33977879 34.72259533 -15.77544117 20.88638646 -7.60620117 6.80517578 C-4.14596447 0.84885048 -4.14596447 0.84885048 0 0 Z " fill="#53B6F5" transform="translate(253.625,385.2578125)"/>
<path d="M0 0 C0.97450104 -0.00274933 1.94900208 -0.00549866 2.95303345 -0.0083313 C4.010392 -0.00114075 5.06775055 0.0060498 6.15715027 0.01345825 C7.27954102 0.0131662 8.40193176 0.01287415 9.55833435 0.01257324 C13.2647731 0.01396554 16.97101034 0.02952233 20.67741394 0.04519653 C23.24859507 0.04892701 25.81977763 0.05177382 28.39096069 0.05377197 C34.46467068 0.0606256 40.53829761 0.07638536 46.61197633 0.09647095 C53.52851639 0.1188461 60.44505996 0.12982744 67.36162722 0.13986182 C81.58541779 0.16075208 95.80914767 0.19591797 110.03288269 0.24050903 C111.25371354 2.68217074 111.19019012 4.32741709 111.23820496 7.05740356 C111.25815018 8.0582901 111.2780954 9.05917664 111.29864502 10.09039307 C111.32371376 11.71544266 111.32371376 11.71544266 111.34928894 13.37332153 C111.37007004 14.48029388 111.39085114 15.58726624 111.41226196 16.7277832 C111.4777926 20.27362702 111.53665883 23.81954658 111.59538269 27.36550903 C111.63856456 29.76525654 111.68217874 32.1649963 111.72624207 34.56472778 C111.83347757 40.45657416 111.93523741 46.34849634 112.03288269 52.24050903 C111.37288269 52.24050903 110.71288269 52.24050903 110.03288269 52.24050903 C109.07300658 49.36088069 108.91134455 47.57423463 108.9193573 44.58547974 C108.91943283 43.64473099 108.91950836 42.70398224 108.91958618 41.73472595 C108.92474747 40.72214218 108.92990875 39.70955841 108.93522644 38.66629028 C108.93734886 37.10783638 108.93734886 37.10783638 108.93951416 35.51789856 C108.94511614 32.19623955 108.95766897 28.8746477 108.97038269 25.55300903 C108.97539744 23.30235896 108.97996039 21.05170784 108.98405457 18.80105591 C108.9950862 13.28085066 109.01182626 7.76068465 109.03288269 2.24050903 C94.4720965 2.30118437 79.91148135 2.37878294 65.35089302 2.47622395 C58.58930653 2.52108374 51.82777156 2.56052064 45.06608582 2.58694458 C38.53668322 2.61247631 32.00748165 2.65344677 25.47822189 2.7036953 C22.99128465 2.72033775 20.5043076 2.7318683 18.01732254 2.73812294 C14.52503254 2.74779223 11.03332817 2.77588673 7.54118347 2.80813599 C6.01016243 2.80598335 6.01016243 2.80598335 4.44821167 2.80378723 C-4.97248827 2.92624704 -13.22142786 4.5218401 -20.20539856 11.12332153 C-23.23829309 14.76817482 -25.14607233 18.88926213 -26.96711731 23.24050903 C-28.12668938 19.76179282 -27.74168381 18.89831259 -26.52961731 15.55300903 C-26.24215637 14.74476685 -25.95469543 13.93652466 -25.65852356 13.10379028 C-25.4303595 12.48890747 -25.20219543 11.87402466 -24.96711731 11.24050903 C-23.97711731 11.24050903 -22.98711731 11.24050903 -21.96711731 11.24050903 C-21.96711731 10.25050903 -21.96711731 9.26050903 -21.96711731 8.24050903 C-20.97711731 8.24050903 -19.98711731 8.24050903 -18.96711731 8.24050903 C-18.96711731 6.59050903 -18.96711731 4.94050903 -18.96711731 3.24050903 C-18.37543762 3.19152466 -17.78375793 3.14254028 -17.17414856 3.09207153 C-16.38395325 3.01730591 -15.59375793 2.94254028 -14.77961731 2.86550903 C-13.61366028 2.76109497 -13.61366028 2.76109497 -12.42414856 2.65457153 C-9.92902878 2.33433233 -9.92902878 2.33433233 -7.62399769 1.22966194 C-4.86589303 0.20282337 -2.9256707 -0.00639491 0 0 Z " fill="#1568E6" transform="translate(187.9671173095703,356.7594909667969)"/>
<path d="M0 0 C2.61854734 1.79798873 3.34165855 3.11127618 5 6 C5.71773857 10.46592888 5.32766948 12.41019494 3.125 16.375 C0.90150053 19.12167582 0.21128307 19.84992953 -3.20703125 20.2734375 C-7.68925863 20.44815701 -10.22637565 20.50522406 -14.0625 18 C-16.45195948 14.30019177 -17.4487783 11.41010986 -17 7 C-13.16949723 -0.66100555 -8.00514232 -2.42148433 0 0 Z " fill="#4EAFF7" transform="translate(561,436)"/>
<path d="M0 0 C47.5 0 47.5 0 60 5 C56.60544106 6.13151965 55.45210759 5.55255781 52.1652832 4.54125977 C41.71444154 1.92884394 29.98111585 2.69801559 19.25 2.4375 C17.57030438 2.39419383 15.89061677 2.35057623 14.2109375 2.30664062 C10.14070817 2.20084214 6.07039433 2.099239 2 2 C2.00222061 3.12149445 2.00444122 4.24298889 2.00672913 5.39846802 C2.02708887 16.01916196 2.04203358 26.63985189 2.05181217 37.26056099 C2.05700859 42.71945134 2.06404668 48.17832581 2.07543945 53.63720703 C2.08638438 58.91513091 2.09230119 64.19303961 2.09487724 69.47097397 C2.09671073 71.47456984 2.10029061 73.47816498 2.10573006 75.4817543 C2.11309503 78.30963116 2.11398454 81.13744698 2.11352539 83.96533203 C2.11712067 84.77526611 2.12071594 85.5852002 2.12442017 86.41967773 C2.11182593 93.68807514 1.52238409 100.68662268 1 108 C13.21 108 25.42 108 38 108 C38 108.33 38 108.66 38 109 C25.46 109 12.92 109 0 109 C0 73.03 0 37.06 0 0 Z " fill="#45B8FD" transform="translate(583,436)"/>
<path d="M0 0 C9.69383588 1.72951697 18.82874206 14.25040651 24.90234375 21.41015625 C30.72889262 28.1202553 37.18725541 34.25309481 43.5 40.5 C67.2133749 63.96605388 67.2133749 63.96605388 67.25816262 71.1245777 C67.24942409 72.16786238 67.24942409 72.16786238 67.24050903 73.23222351 C67.24221788 73.97390976 67.24392673 74.71559601 67.24568737 75.47975761 C67.24898886 77.97187269 67.23796783 80.46372016 67.22705078 82.95581055 C67.22648681 84.73948154 67.22680295 86.523153 67.22793579 88.30682373 C67.22851085 93.15570546 67.21673174 98.00448874 67.20278788 102.85334754 C67.19030605 107.91824329 67.18911203 112.98314117 67.18673706 118.04804993 C67.18051479 127.64215739 67.16409387 137.2362194 67.14403808 146.83030683 C67.12170231 157.75156491 67.1106915 168.67282513 67.10064721 179.59410036 C67.07972829 202.06275879 67.0445378 224.53137685 67 247 C66.67 247 66.34 247 66 247 C65.99780016 245.62175364 65.99780016 245.62175364 65.99555588 244.21566391 C65.95852862 221.87406509 65.89956822 199.53261847 65.81609726 177.19114304 C65.77626227 166.38702897 65.74389246 155.58298821 65.72900391 144.77880859 C65.71601048 135.36353949 65.68910506 125.94843139 65.64538693 116.53325295 C65.62272006 111.54645115 65.60709244 106.55984831 65.60811615 101.57299042 C65.60885968 96.88123843 65.59103284 92.18992713 65.55883217 87.49828911 C65.55029861 85.77455338 65.54860656 84.05076843 65.55419731 82.32702065 C65.5608071 79.97634482 65.54299143 77.6270836 65.51898193 75.27655029 C65.51529476 73.96022991 65.51160759 72.64390953 65.50780869 71.28770065 C64.91769055 67.46710476 64.02091194 66.32096516 61 64 C60.01 63.505 60.01 63.505 59 63 C58.2619411 61.68984493 57.57456814 60.35091434 56.9140625 59 C53.90967596 53.43648449 49.89014905 49.36875343 45.375 45 C44.611875 44.23816406 43.84875 43.47632813 43.0625 42.69140625 C39.04761745 38.54572554 39.04761745 38.54572554 34 36 C32.98648336 34.34151823 31.98879205 32.67334039 31 31 C27.55555305 27.1640959 27.55555305 27.1640959 23 25 C22.33333333 23.33333333 21.66666667 21.66666667 21 20 C20.01 19.67 19.02 19.34 18 19 C17.67 18.01 17.34 17.02 17 16 C16.030625 15.54625 15.06125 15.0925 14.0625 14.625 C10.3515589 12.65592921 10.48315652 11.75151354 9 8 C7.3038514 6.31629259 5.51911492 4.82784863 3.65625 3.33203125 C2 2 2 2 0 0 Z " fill="#167FFD" transform="translate(302,348)"/>
<path d="M0 0 C9.57931491 -0.02316712 19.15862019 -0.04093741 28.737957 -0.05181217 C33.18599181 -0.05703142 37.63400747 -0.06411172 42.08203125 -0.07543945 C46.37436359 -0.08630232 50.6666775 -0.09228407 54.95902252 -0.09487724 C56.59687846 -0.09672535 58.23473339 -0.1003342 59.87258148 -0.10573006 C62.16605309 -0.11298556 64.45944845 -0.11398903 66.75292969 -0.11352539 C68.05864929 -0.115746 69.3643689 -0.11796661 70.70965576 -0.12025452 C73.38248838 -0.02256863 75.45743063 0.29137555 78 1 C78.5775 0.835 79.155 0.67 79.75 0.5 C82.55977154 -0.12439368 84.98544724 0.33661733 87.80615234 0.74194336 C94.06620342 1.47829702 100.42414986 0.94168581 106.6875 0.5 C123.08366012 -0.52158399 139.58021134 -0.08176559 156 0 C156 0.99 156 1.98 156 3 C104.85 3 53.7 3 1 3 C0.67 2.01 0.34 1.02 0 0 Z " fill="#0D53E5" transform="translate(179,629)"/>
<path d="M0 0 C0.33 0 0.66 0 1 0 C1.33 44.22 1.66 88.44 2 134 C5.96 132.02 5.96 132.02 10 130 C10.99 130.33 11.98 130.66 13 131 C11.42466914 131.86883706 9.83935491 132.71959068 8.25 133.5625 C7.36828125 134.03816406 6.4865625 134.51382813 5.578125 135.00390625 C2.7041635 136.11430047 1.84099621 135.86866892 -1 135 C-1.17887004 120.94204092 -1.34421918 106.88397548 -1.49477577 92.82568359 C-1.56509088 86.29532175 -1.6394566 79.76506233 -1.72363281 73.23486328 C-1.80496423 66.91307821 -1.87493331 60.5912535 -1.93757248 54.26925659 C-1.96316145 51.87754816 -1.9925978 49.48587717 -2.02626419 47.0942688 C-2.24565482 31.27380388 -1.62638703 15.7418468 0 0 Z " fill="#1979F4" transform="translate(159,381)"/>
<path d="M0 0 C0.99 0.495 0.99 0.495 2 1 C2 42.58 2 84.16 2 127 C2.66 127.33 3.32 127.66 4 128 C2.02 128.99 2.02 128.99 0 130 C0 87.1 0 44.2 0 0 Z " fill="#010206" transform="translate(160,386)"/>
<path d="M0 0 C0.99 0.33 1.98 0.66 3 1 C3 2.32 3 3.64 3 5 C3.66 5 4.32 5 5 5 C5.66 8.3 6.32 11.6 7 15 C11.45474982 12.77262509 12.96434522 11.36211739 15 7 C18.7411323 14.3799236 22.43122742 21.78503614 26 29.25 C26.31461182 29.89332275 26.62922363 30.53664551 26.95336914 31.19946289 C27.69722265 32.77193412 28.35687179 34.38371725 29 36 C28.67 36.66 28.34 37.32 28 38 C26.99491199 36.21118264 25.99607264 34.41885304 25 32.625 C24.443125 31.62726562 23.88625 30.62953125 23.3125 29.6015625 C22 27 22 27 22 25 C21.401875 25.639375 20.80375 26.27875 20.1875 26.9375 C18 29 18 29 15 30 C15.30035156 30.55429687 15.60070312 31.10859375 15.91015625 31.6796875 C16.29042969 32.40414062 16.67070312 33.12859375 17.0625 33.875 C17.44535156 34.59429688 17.82820313 35.31359375 18.22265625 36.0546875 C18.47917969 36.69664062 18.73570312 37.33859375 19 38 C18.67 38.66 18.34 39.32 18 40 C12.70828725 30.31659942 7.64602358 20.62050902 3.375 10.4375 C3.03275391 9.6230542 2.69050781 8.8086084 2.33789062 7.96948242 C0 2.28089876 0 2.28089876 0 0 Z " fill="#2B84F1" transform="translate(205,493)"/>
<path d="M0 0 C0.66 0 1.32 0 2 0 C0.24172816 5.06014278 -2.5039505 9.49252248 -5.25 14.0625 C-5.77287598 14.93358398 -6.29575195 15.80466797 -6.83447266 16.70214844 C-14.13000868 28.68874636 -22.20868412 40.20658556 -30.82275391 51.28222656 C-32.18819127 53.10548128 -32.18819127 53.10548128 -33 56 C-31.98292969 56.32871094 -31.98292969 56.32871094 -30.9453125 56.6640625 C-27.12662486 58.39614628 -24.13555921 60.76655263 -20.875 63.375 C-19.94494141 64.09816406 -19.94494141 64.09816406 -18.99609375 64.8359375 C-15.86680263 67.31245176 -13.19827308 69.61433854 -11 73 C-12.65 72.34 -14.3 71.68 -16 71 C-16 70.34 -16 69.68 -16 69 C-16.556875 68.731875 -17.11375 68.46375 -17.6875 68.1875 C-24.70909091 64.58181818 -24.70909091 64.58181818 -26 62 C-26.99 62 -27.98 62 -29 62 C-30.4375 60.75 -30.4375 60.75 -32 59 C-33.11375 58.0409375 -33.11375 58.0409375 -34.25 57.0625 C-36 55 -36 55 -35.9375 52.9375 C-34.89324813 50.77937948 -33.86992138 49.4959371 -32 48 C-31.34 48 -30.68 48 -30 48 C-29.67 45.69 -29.34 43.38 -29 41 C-26.525 40.505 -26.525 40.505 -24 40 C-23.34 37.36 -22.68 34.72 -22 32 C-21.34 32 -20.68 32 -20 32 C-19.34 30.68 -18.68 29.36 -18 28 C-17.34 28 -16.68 28 -16 28 C-16.33 27.01 -16.66 26.02 -17 25 C-16.01 25 -15.02 25 -14 25 C-14 23.35 -14 21.7 -14 20 C-13.01 19.67 -12.02 19.34 -11 19 C-7.74385099 14.39647899 -6.4615807 9.53896846 -6 4 C-5.01 4.33 -4.02 4.66 -3 5 C-3 4.34 -3 3.68 -3 3 C-2.34 3 -1.68 3 -1 3 C-0.67 2.01 -0.34 1.02 0 0 Z " fill="#49AFF3" transform="translate(246,413)"/>
<path d="M0 0 C0.97312637 -0.00137466 1.94625275 -0.00274933 2.9488678 -0.00416565 C4.54029854 0.00122726 4.54029854 0.00122726 6.16387939 0.00672913 C7.84724648 0.00651009 7.84724648 0.00651009 9.56462097 0.00628662 C13.27643767 0.00698365 16.98820427 0.0147663 20.70001221 0.02259827 C23.27262342 0.02446319 25.84523499 0.02588674 28.41784668 0.02688599 C34.49864455 0.03031487 40.57942173 0.03819752 46.6602118 0.04823548 C53.58399136 0.05941667 60.50777179 0.06491212 67.43155813 0.06993091 C81.67209415 0.08038066 95.91261504 0.09796761 110.15313721 0.12025452 C110.15313721 0.45025452 110.15313721 0.78025452 110.15313721 1.12025452 C109.57998339 1.12264287 109.00682957 1.12503122 108.41630745 1.12749195 C94.43446972 1.18677089 80.45279913 1.26240273 66.47114754 1.35596943 C59.70956105 1.40082923 52.94802608 1.44026613 46.18634033 1.46669006 C39.65693774 1.4922218 33.12773617 1.53319226 26.59847641 1.58344078 C24.11153917 1.60008324 21.62456212 1.61161378 19.13757706 1.61786842 C15.64528705 1.62753772 12.15358269 1.65563222 8.66143799 1.68788147 C7.13041695 1.68572884 7.13041695 1.68572884 5.56846619 1.68353271 C-3.85223375 1.80599252 -12.10117334 3.40158558 -19.08514404 10.00306702 C-22.11803857 13.64792031 -24.02581781 17.76900761 -25.84686279 22.12025452 C-27.00643486 18.64153831 -26.6214293 17.77805807 -25.40936279 14.43275452 C-25.12190186 13.62451233 -24.83444092 12.81627014 -24.53826904 11.98353577 C-24.31010498 11.36865295 -24.08194092 10.75377014 -23.84686279 10.12025452 C-22.85686279 10.12025452 -21.86686279 10.12025452 -20.84686279 10.12025452 C-20.84686279 9.13025452 -20.84686279 8.14025452 -20.84686279 7.12025452 C-19.85686279 7.12025452 -18.86686279 7.12025452 -17.84686279 7.12025452 C-17.84686279 5.47025452 -17.84686279 3.82025452 -17.84686279 2.12025452 C-17.24358154 2.05966858 -16.64030029 1.99908264 -16.01873779 1.93666077 C-14.81990967 1.81097717 -14.81990967 1.81097717 -13.59686279 1.68275452 C-12.80795654 1.60154358 -12.01905029 1.52033264 -11.20623779 1.43666077 C-8.91291763 1.18401297 -8.91291763 1.18401297 -7.00233078 0.60799503 C-4.60161457 0.06475961 -2.46120781 -0.00268691 0 0 Z " fill="#1CA0FE" transform="translate(186.84686279296875,357.87974548339844)"/>
<path d="M0 0 C9.69383588 1.72951697 18.82874206 14.25040651 24.90234375 21.41015625 C30.72889262 28.1202553 37.18725541 34.25309481 43.5 40.5 C64.22184706 61.00572648 64.22184706 61.00572648 67 67 C66.01 67.495 66.01 67.495 65 68 C64.38125 67.360625 63.7625 66.72125 63.125 66.0625 C61.17402388 63.96116416 61.17402388 63.96116416 59 63 C58.2619411 61.68984493 57.57456814 60.35091434 56.9140625 59 C53.90967596 53.43648449 49.89014905 49.36875343 45.375 45 C44.611875 44.23816406 43.84875 43.47632813 43.0625 42.69140625 C39.04761745 38.54572554 39.04761745 38.54572554 34 36 C32.98648336 34.34151823 31.98879205 32.67334039 31 31 C27.55555305 27.1640959 27.55555305 27.1640959 23 25 C22.33333333 23.33333333 21.66666667 21.66666667 21 20 C20.01 19.67 19.02 19.34 18 19 C17.67 18.01 17.34 17.02 17 16 C16.030625 15.54625 15.06125 15.0925 14.0625 14.625 C10.3515589 12.65592921 10.48315652 11.75151354 9 8 C7.3038514 6.31629259 5.51911492 4.82784863 3.65625 3.33203125 C2 2 2 2 0 0 Z " fill="#1B87F2" transform="translate(302,348)"/>
<path d="M0 0 C0.66 0 1.32 0 2 0 C3 3 3 3 2.1706543 4.84667969 C1.72633057 5.53149414 1.28200684 6.21630859 0.82421875 6.921875 C0.33026611 7.69354004 -0.16368652 8.46520508 -0.67260742 9.26025391 C-1.21377197 10.08187012 -1.75493652 10.90348633 -2.3125 11.75 C-2.85559814 12.59095215 -3.39869629 13.4319043 -3.95825195 14.29833984 C-5.62685626 16.8736198 -7.31091978 19.43811262 -9 22 C-9.50756836 22.77311523 -10.01513672 23.54623047 -10.53808594 24.34277344 C-18.58811211 36.58811211 -18.58811211 36.58811211 -20 38 C-23.22265625 38.51953125 -23.22265625 38.51953125 -27 38 C-29.34017432 35.89119672 -30.83353373 33.37890104 -32.4375 30.6875 C-32.88287109 29.99720703 -33.32824219 29.30691406 -33.78710938 28.59570312 C-37 23.48765121 -37 23.48765121 -37 20 C-33.59863711 21.37912403 -32.30394435 22.62611859 -30.75 25.9375 C-30.24726563 26.97197266 -30.24726563 26.97197266 -29.734375 28.02734375 C-29 30 -29 30 -29 33 C-26.36 33.33 -23.72 33.66 -21 34 C-16.37321838 27.64344895 -12.27245503 21.16322493 -8.48046875 14.2734375 C-7.99191406 13.52320313 -7.50335938 12.77296875 -7 12 C-6.34 12 -5.68 12 -5 12 C-4.67 10.35 -4.34 8.7 -4 7 C-3.34 7 -2.68 7 -2 7 C-1.855625 6.401875 -1.71125 5.80375 -1.5625 5.1875 C-1.1127561 3.43849596 -0.57107659 1.71322977 0 0 Z " fill="#145DDE" transform="translate(277,540)"/>
<path d="M0 0 C6.26627769 1.52836041 10.77164938 4.64113719 14.33203125 10.0078125 C17.70680689 16.66196376 18.14206324 23.49048172 16.31640625 30.69921875 C15.6148913 32.83732891 14.86196033 34.92205992 14 37 C12.9375 35.125 12.9375 35.125 12 33 C12.33 32.34 12.66 31.68 13 31 C13.66 31 14.32 31 15 31 C14.67 27.37 14.34 23.74 14 20 C9.96621634 20.50980961 9.96621634 20.50980961 8.75 23.0625 C8.37875 24.0215625 8.37875 24.0215625 8 25 C7.98582031 24.24976563 7.97164063 23.49953125 7.95703125 22.7265625 C7.53506102 13.67130948 4.98049852 7.47074778 0 0 Z " fill="#1867E7" transform="translate(319,504)"/>
<path d="M0 0 C0.33 1.32 0.66 2.64 1 4 C0.34 4 -0.32 4 -1 4 C-1.268125 4.639375 -1.53625 5.27875 -1.8125 5.9375 C-3 8 -3 8 -6 9 C-6 9.99 -6 10.98 -6 12 C-6.66 12 -7.32 12 -8 12 C-7.7525 12.5775 -7.505 13.155 -7.25 13.75 C-7.12625 14.86375 -7.12625 14.86375 -7 16 C-8.2848951 17.38007251 -9.63015802 18.70420353 -11 20 C-11.67513781 21.19220765 -12.3197147 22.40208894 -12.9375 23.625 C-15.10688417 27.17490138 -16.06012853 28.01503213 -20 29 C-18.8643692 35.75401475 -17.07273688 41.94132002 -14.609375 48.3359375 C-14 51 -14 51 -14.890625 53.3515625 C-15.25671875 53.89554687 -15.6228125 54.43953125 -16 55 C-16.80478128 53.0679106 -17.59300609 51.12892419 -18.375 49.1875 C-18.81585938 48.10855469 -19.25671875 47.02960938 -19.7109375 45.91796875 C-20.15795904 44.61781034 -20.58571492 43.31095691 -21 42 C-21.27755127 41.15993408 -21.55510254 40.31986816 -21.84106445 39.4543457 C-22.92681236 35.35684951 -23.56472087 32.37660312 -21.92285156 28.37426758 C-20.23292714 25.71286664 -18.40926423 23.27192549 -16.4375 20.8125 C-15.16376528 19.13272193 -13.89160639 17.45174768 -12.62109375 15.76953125 C-12.00218262 14.97369629 -11.38327148 14.17786133 -10.74560547 13.35791016 C-8.62948221 10.49951597 -6.84682595 7.51383454 -5.12524414 4.4050293 C-4.56824829 3.70953979 -4.56824829 3.70953979 -4 3 C-3.01 3 -2.02 3 -1 3 C-0.67 2.01 -0.34 1.02 0 0 Z " fill="#4BB4F4" transform="translate(220,437)"/>
<path d="M0 0 C5.58316674 -0.06946797 11.16478971 -0.12901704 16.74804688 -0.16479492 C18.64100266 -0.17973424 20.53392475 -0.20009315 22.42675781 -0.22631836 C35.52790232 -0.40307983 47.71870515 -0.19311239 60 5 C56.60491711 6.1316943 55.45091127 5.5517504 52.16333008 4.54125977 C41.55885515 1.88804671 29.63710821 2.69422199 18.75 2.4375 C17.02212743 2.39419777 15.29426273 2.35058025 13.56640625 2.30664062 C9.37768836 2.20021587 5.18888838 2.10024326 1 2 C1 13.55 1 25.1 1 37 C0.67 37 0.34 37 0 37 C0 24.79 0 12.58 0 0 Z " fill="#56C8FD" transform="translate(583,436)"/>
<path d="M0 0 C0.33 0.66 0.66 1.32 1 2 C1.66 2 2.32 2 3 2 C6.08956709 6.27720012 8.68927645 10.96617618 10.625 15.875 C12.03628057 19.08245584 13.47658764 20.63938844 16 23 C17.25 25.25 17.25 25.25 18 27 C18.66 27 19.32 27 20 27 C20.15855469 27.62648438 20.31710937 28.25296875 20.48046875 28.8984375 C21.7905977 34.15624686 21.7905977 34.15624686 25.6875 37.5625 C26.450625 37.706875 27.21375 37.85125 28 38 C28 38.99 28 39.98 28 41 C29.02276532 43.9952413 29.7448078 45.7448078 32 48 C34.18202892 50.6184347 35.39824825 52.63019019 36 56 C31.98879443 52.21324817 28.78050838 48.20414469 25.625 43.6875 C25.1196875 42.96836426 24.614375 42.24922852 24.09375 41.50830078 C16.99555927 31.27036083 10.46268975 20.64707685 4 10 C3.56300781 9.2874707 3.12601562 8.57494141 2.67578125 7.84082031 C0 3.36006031 0 3.36006031 0 0 Z " fill="#43A8F3" transform="translate(259,411)"/>
<path d="M0 0 C0 0.66 0 1.32 0 2 C-5.75 3.125 -5.75 3.125 -8 2 C-8 2.66 -8 3.32 -8 4 C-9.66220581 5.00739746 -11.33020674 6.00522955 -13 7 C-14.27188472 7.95056647 -15.52129775 8.93173754 -16.75 9.9375 C-17.34296875 10.42089844 -17.9359375 10.90429688 -18.546875 11.40234375 C-20.21736132 13.23898059 -20.6023883 14.57770766 -21 17 C-21.99 17 -22.98 17 -24 17 C-24.66 18.32 -25.32 19.64 -26 21 C-26.66 21 -27.32 21 -28 21 C-28.33 22.65 -28.66 24.3 -29 26 C-30.01419373 23.37396266 -30.12957341 22.31191664 -29.03125 19.66796875 C-23.46089841 10.64456758 -12.33806914 -3.82905594 0 0 Z " fill="#187BEF" transform="translate(180,348)"/>
<path d="M0 0 C0.66 0 1.32 0 2 0 C2.33 16.5 2.66 33 3 50 C2.34 50 1.68 50 1 50 C0.04012389 47.12037166 -0.12153814 45.33372559 -0.11352539 42.3449707 C-0.11344986 41.40422195 -0.11337433 40.46347321 -0.11329651 39.49421692 C-0.10813522 38.48163315 -0.10297394 37.46904938 -0.09765625 36.42578125 C-0.0962413 35.38681198 -0.09482635 34.34784271 -0.09336853 33.27738953 C-0.08776656 29.95573052 -0.07521372 26.63413867 -0.0625 23.3125 C-0.05748525 21.06184993 -0.0529223 18.81119881 -0.04882812 16.56054688 C-0.03779649 11.04034163 -0.02105643 5.52017561 0 0 Z " fill="#1A82F4" transform="translate(297,359)"/>
<path d="M0 0 C1.24390511 0.91785458 2.47945441 1.84793647 3.6875 2.8125 C-0.18874922 2.8125 -2.7685707 1.34005573 -6.3125 -0.1875 C-9.09138613 -0.87890522 -9.09138613 -0.87890522 -11.3125 -1.1875 C-11.3125 -1.8475 -11.3125 -2.5075 -11.3125 -3.1875 C-14.98002428 -3.105829 -18.64598093 -2.99305924 -22.3125 -2.875 C-23.34246094 -2.85244141 -24.37242187 -2.82988281 -25.43359375 -2.80664062 C-31.71007436 -2.58676392 -36.57168595 -1.7612063 -42.3125 0.8125 C-42.3125 0.1525 -42.3125 -0.5075 -42.3125 -1.1875 C-40.73050369 -1.83660154 -39.14684276 -2.48164694 -37.5625 -3.125 C-36.68078125 -3.48464844 -35.7990625 -3.84429687 -34.890625 -4.21484375 C-23.64384998 -8.45794524 -9.96134538 -6.62523443 0 0 Z " fill="#49AFE9" transform="translate(745.3125,472.1875)"/>
<path d="M0 0 C24.42 0 48.84 0 74 0 C74 0.66 74 1.32 74 2 C49.91 2.33 25.82 2.66 1 3 C0.67 2.01 0.34 1.02 0 0 Z " fill="#0A47BF" transform="translate(179,629)"/>
<path d="M0 0 C4.75 1.875 4.75 1.875 7 3 C10.04418803 3.47836647 13.11979971 3.71531388 16.1875 4 C17.5645813 4.13027588 17.5645813 4.13027588 18.96948242 4.26318359 C29.62740076 5.22041175 40.30772779 5.63884403 51 6 C51 6.33 51 6.66 51 7 C45.62895991 7.09964824 40.25847014 7.17183292 34.88671875 7.21972656 C33.06338108 7.23971364 31.24010644 7.26691286 29.41699219 7.30175781 C8.77261868 7.68615469 8.77261868 7.68615469 2 3 C1.34 2.01 0.68 1.02 0 0 Z " fill="#1B7FF3" transform="translate(306,419)"/>
<path d="M0 0 C6.26627769 1.52836041 10.77164938 4.64113719 14.33203125 10.0078125 C17.70680689 16.66196376 18.14206324 23.49048172 16.31640625 30.69921875 C15.6148913 32.83732891 14.86196033 34.92205992 14 37 C12.9375 35.125 12.9375 35.125 12 33 C12.33 32.34 12.66 31.68 13 31 C13.66 31 14.32 31 15 31 C14.8976615 17.6132331 14.8976615 17.6132331 8.3671875 6.296875 C7.91601562 5.86890625 7.46484375 5.4409375 7 5 C6.34 5.66 5.68 6.32 5 7 C3.35 4.69 1.7 2.38 0 0 Z " fill="#1A6FE8" transform="translate(319,504)"/>
<path d="M0 0 C3.95879739 0.54866062 5.75896271 2.3974356 8.51953125 5.19140625 C9.37740234 6.05443359 10.23527344 6.91746094 11.11914062 7.80664062 C12.00794922 8.71607422 12.89675781 9.62550781 13.8125 10.5625 C14.68970703 11.44486328 15.56691406 12.32722656 16.47070312 13.23632812 C30.40655151 27.33894807 30.40655151 27.33894807 33 33 C32.01 33.495 32.01 33.495 31 34 C30.38125 33.360625 29.7625 32.72125 29.125 32.0625 C27.17402388 29.96116416 27.17402388 29.96116416 25 29 C24.2619411 27.68984493 23.57456814 26.35091434 22.9140625 25 C19.90967596 19.43648449 15.89014905 15.36875343 11.375 11 C10.2303125 9.85724609 10.2303125 9.85724609 9.0625 8.69140625 C5.04761745 4.54572554 5.04761745 4.54572554 0 2 C0 1.34 0 0.68 0 0 Z " fill="#1A7FE2" transform="translate(336,382)"/>
<path d="M0 0 C5.57432432 0.4954955 5.57432432 0.4954955 7.6875 3 C8.120625 3.66 8.55375 4.32 9 5 C9.99 5.33 10.98 5.66 12 6 C13.6875 8.5625 13.6875 8.5625 15 11 C10.95579349 9.22054913 7.53921513 6.60470327 4 4 C4.30035156 4.83144531 4.60070312 5.66289062 4.91015625 6.51953125 C5.48056641 8.14955078 5.48056641 8.14955078 6.0625 9.8125 C6.44535156 10.89144531 6.82820312 11.97039062 7.22265625 13.08203125 C8 16 8 16 7 19 C4.50118469 15.41836472 2.50847787 12.09443994 1 8 C0.608125 7.319375 0.21625 6.63875 -0.1875 5.9375 C-1.18971474 3.5476033 -0.85580298 2.39624834 0 0 Z " fill="#3C9CEF" transform="translate(211,480)"/>
<path d="M0 0 C3.90165622 4.5929691 7.04525447 9.60054149 10.25 14.6875 C10.80429687 15.55439453 11.35859375 16.42128906 11.9296875 17.31445312 C12.45304687 18.14267578 12.97640625 18.97089844 13.515625 19.82421875 C13.99290039 20.57791748 14.47017578 21.33161621 14.96191406 22.1081543 C16 24 16 24 16 26 C15.34 26 14.68 26 14 26 C13.67 24.68 13.34 23.36 13 22 C12.34 22 11.68 22 11 22 C10.67 21.01 10.34 20.02 10 19 C9.34 18.360625 8.68 17.72125 8 17.0625 C6 15 6 15 5.5 12.875 C5.335 12.25625 5.17 11.6375 5 11 C4.38125 10.690625 3.7625 10.38125 3.125 10.0625 C0.18857592 8.59428796 -0.72130852 6.98361345 -2 4 C-1.1875 1.6875 -1.1875 1.6875 0 0 Z " fill="#4CB5F2" transform="translate(274,414)"/>
<path d="M0 0 C0.66 0.99 1.32 1.98 2 3 C0.515 5.475 0.515 5.475 -1 8 C-0.32195312 8.21914063 0.35609375 8.43828125 1.0546875 8.6640625 C4.87337514 10.39614628 7.86444079 12.76655263 11.125 15.375 C12.05505859 16.09816406 12.05505859 16.09816406 13.00390625 16.8359375 C16.13319737 19.31245176 18.80172692 21.61433854 21 25 C19.35 24.34 17.7 23.68 16 23 C16 22.34 16 21.68 16 21 C15.443125 20.731875 14.88625 20.46375 14.3125 20.1875 C7.29090909 16.58181818 7.29090909 16.58181818 6 14 C5.01 14 4.02 14 3 14 C1.5625 12.75 1.5625 12.75 0 11 C-0.7425 10.360625 -1.485 9.72125 -2.25 9.0625 C-4 7 -4 7 -3.9375 4.9375 C-2.91177008 2.81765818 -1.76885138 1.53813164 0 0 Z " fill="#41A3F1" transform="translate(214,461)"/>
<path d="M0 0 C0.33 0 0.66 0 1 0 C1.01458252 0.81154541 1.02916504 1.62309082 1.04418945 2.45922852 C1.11897632 6.16078193 1.21553761 9.86146379 1.3125 13.5625 C1.33505859 14.83931641 1.35761719 16.11613281 1.38085938 17.43164062 C1.60864863 26.6314845 1.60864863 26.6314845 5 35 C7.45633073 37.31607874 7.45633073 37.31607874 10 39 C10.66 39.66 11.32 40.32 12 41 C7.59033771 40.51003752 6.02554636 39.12314463 3 36 C0.93401483 35.35687668 0.93401483 35.35687668 -1 35 C-1.22607056 23.31968789 -0.55736816 11.66322528 0 0 Z " fill="#1B86F5" transform="translate(308,372)"/>
<path d="M0 0 C1.00545364 0.00141495 2.01090729 0.0028299 3.04682922 0.00428772 C6.21484529 0.00982365 9.38278704 0.02236359 12.55078125 0.03515625 C14.71679584 0.04017955 16.88281156 0.04474099 19.04882812 0.04882812 C24.32033727 0.05977197 29.59180395 0.07644471 34.86328125 0.09765625 C34.86328125 1.08765625 34.86328125 2.07765625 34.86328125 3.09765625 C16.05328125 2.76765625 -2.75671875 2.43765625 -22.13671875 2.09765625 C-22.13671875 1.76765625 -22.13671875 1.43765625 -22.13671875 1.09765625 C-14.73379462 0.30649421 -7.44255086 -0.04045959 0 0 Z " fill="#0B46BF" transform="translate(300.13671875,628.90234375)"/>
<path d="M0 0 C1.66123408 2.91705776 2.25546014 5.02213674 2.265625 8.37109375 C2.26820313 9.19287109 2.27078125 10.01464844 2.2734375 10.86132812 C2.26570312 11.71146484 2.25796875 12.56160156 2.25 13.4375 C2.25773438 14.28376953 2.26546875 15.13003906 2.2734375 16.00195312 C2.25953377 20.440718 2.08674313 23.9672861 0 28 C-0.33 28 -0.66 28 -1 28 C-1.33 19.09 -1.66 10.18 -2 1 C-1.34 0.67 -0.68 0.34 0 0 Z " fill="#0A1728" transform="translate(534,476)"/>
<path d="M0 0 C0.515625 0.2475 1.03125 0.495 1.5625 0.75 C1.5625 1.41 1.5625 2.07 1.5625 2.75 C0.840625 2.646875 0.11875 2.54375 -0.625 2.4375 C-4.5948703 2.8785967 -5.94153068 4.75483682 -8.4375 7.75 C-8.4375 8.41 -8.4375 9.07 -8.4375 9.75 C-8.4375 10.41 -8.4375 11.07 -8.4375 11.75 C-10.0875 12.08 -11.7375 12.41 -13.4375 12.75 C-14.9225 18.69 -14.9225 18.69 -16.4375 24.75 C-16.7675 24.75 -17.0975 24.75 -17.4375 24.75 C-17.88704486 17.55728223 -16.29878598 12.43852419 -12.1875 6.5 C-8.80590214 3.11840214 -5.09786231 -0.52285767 0 0 Z " fill="#43A9ED" transform="translate(871.4375,468.25)"/>
<path d="M0 0 C0.66 0.33 1.32 0.66 2 1 C2 8.92 2 16.84 2 25 C0.02 25.99 0.02 25.99 -2 27 C-1.85967508 23.81223289 -1.71173356 20.6248615 -1.5625 17.4375 C-1.52318359 16.54224609 -1.48386719 15.64699219 -1.44335938 14.72460938 C-1.20667217 9.7541781 -0.80178328 4.91176481 0 0 Z " fill="#1863E2" transform="translate(249,529)"/>
<path d="M0 0 C0.99 0.33 1.98 0.66 3 1 C3 2.32 3 3.64 3 5 C3.66 5 4.32 5 5 5 C5.17273438 5.70640625 5.34546875 6.4128125 5.5234375 7.140625 C7.90168803 15.82451227 11.52735838 23.43103553 15.73388672 31.37011719 C16.38574951 32.61583496 16.38574951 32.61583496 17.05078125 33.88671875 C17.64886597 35.00373169 17.64886597 35.00373169 18.2590332 36.14331055 C18.50355225 36.75601807 18.74807129 37.36872559 19 38 C18.67 38.66 18.34 39.32 18 40 C12.70828725 30.31659942 7.64602358 20.62050902 3.375 10.4375 C3.03275391 9.6230542 2.69050781 8.8086084 2.33789062 7.96948242 C0 2.28089876 0 2.28089876 0 0 Z " fill="#3299F4" transform="translate(205,493)"/>
<path d="M0 0 C0.99 0.33 1.98 0.66 3 1 C1.948125 1.5775 0.89625 2.155 -0.1875 2.75 C-2.61632941 4.12666444 -4.61148969 5.48919175 -6.8125 7.25 C-9 9 -9 9 -11 9 C-11.268125 9.556875 -11.53625 10.11375 -11.8125 10.6875 C-12.204375 11.450625 -12.59625 12.21375 -13 13 C-13.433125 13.886875 -13.86625 14.77375 -14.3125 15.6875 C-16 18 -16 18 -18.6875 18.8125 C-19.450625 18.874375 -20.21375 18.93625 -21 19 C-16.64890143 9.5865656 -9.0273593 4.51367965 0 0 Z " fill="#56C0F4" transform="translate(455,438)"/>
<path d="M0 0 C7.875 6.75 7.875 6.75 10.74609375 9.6484375 C11.35517578 10.26074219 11.96425781 10.87304688 12.59179688 11.50390625 C13.20087891 12.12136719 13.80996094 12.73882812 14.4375 13.375 C15.07365234 14.01566406 15.70980469 14.65632813 16.36523438 15.31640625 C17.91250332 16.87530879 19.45736492 18.43651416 21 20 C18 20 18 20 16.31420898 18.63891602 C15.71423096 18.01686279 15.11425293 17.39480957 14.49609375 16.75390625 C13.50899414 15.74553711 13.50899414 15.74553711 12.50195312 14.71679688 C11.82068359 14.00587891 11.13941406 13.29496094 10.4375 12.5625 C9.08417464 11.1658886 7.72880226 9.77125698 6.37109375 8.37890625 C5.77224365 7.7557251 5.17339355 7.13254395 4.55639648 6.49047852 C3.0520826 4.90286039 3.0520826 4.90286039 1 4 C1 11.92 1 19.84 1 28 C0.67 28 0.34 28 0 28 C0 18.76 0 9.52 0 0 Z " fill="#06162D" transform="translate(309,372)"/>
<path d="M0 0 C3.98921252 1.27678336 7.79581231 2.74442941 11.625 4.4375 C17.61992443 6.97670358 23.6492395 8.61499372 30 10 C30 10.33 30 10.66 30 11 C28.83082031 10.9278125 27.66164062 10.855625 26.45703125 10.78125 C24.90885893 10.68742137 23.36068158 10.59367575 21.8125 10.5 C21.04357422 10.45230469 20.27464844 10.40460937 19.48242188 10.35546875 C15.648496 10.12510411 11.84309823 9.9383872 8 10 C8 9.34 8 8.68 8 8 C7.34 7.34 6.68 6.68 6 6 C6.33 5.67 6.66 5.34 7 5 C5.5459375 4.5978125 5.5459375 4.5978125 4.0625 4.1875 C3.051875 3.795625 2.04125 3.40375 1 3 C0.67 2.01 0.34 1.02 0 0 Z " fill="#04060C" transform="translate(146,589)"/>
<path d="M0 0 C0.66 0.33 1.32 0.66 2 1 C2 1.99 2 2.98 2 4 C1.34 4 0.68 4 0 4 C0.103125 4.721875 0.20625 5.44375 0.3125 6.1875 C-0.12505389 10.12548502 -2.18592766 11.3199311 -5 14 C-5.33 14.9075 -5.66 15.815 -6 16.75 C-6.33 17.4925 -6.66 18.235 -7 19 C-9.625 19.8125 -9.625 19.8125 -12 20 C-12 19.01 -12 18.02 -12 17 C-10.86255972 15.93149549 -9.72359647 14.86457777 -8.578125 13.8046875 C-5.01694906 9.73225363 -2.60950281 4.71515349 0 0 Z " fill="#1865E3" transform="translate(270,536)"/>
<path d="M0 0 C5.2677328 1.0935125 10.25272089 2.26861449 15.20703125 4.39453125 C11.82176526 5.52295325 10.68031667 4.96021684 7.40625 3.9375 C2.77226682 2.79340824 -2.04459879 2.71033733 -6.79296875 2.39453125 C-9.20978877 2.20901841 -11.62646045 2.02156131 -14.04296875 1.83203125 C-15.95960578 1.68580894 -17.87626149 1.53983003 -19.79296875 1.39453125 C-14.08552832 -2.41042903 -6.54648418 -1.04501035 0 0 Z " fill="#58C0F4" transform="translate(627.79296875,436.60546875)"/>
<path d="M0 0 C4.37360941 3.52924664 5.56000642 7.57583858 7.1875 12.75 C7.44724609 13.5234375 7.70699219 14.296875 7.97460938 15.09375 C9.59080596 20.07180252 10.50635825 24.78999788 11 30 C10.01 30.66 9.02 31.32 8 32 C7.896875 30.9275 7.79375 29.855 7.6875 28.75 C6.78205375 21.66991336 5.59779735 14.21025243 1.8125 8.0625 C-0.02524807 4.95733947 -0.42669098 3.52020059 0 0 Z " fill="#1E73E8" transform="translate(264,445)"/>
<path d="M0 0 C0.33 0.99 0.66 1.98 1 3 C3.3430809 4.12085312 3.3430809 4.12085312 6 5 C10.73057677 7.22615377 13.14769981 8.85916725 15.1015625 13.859375 C16.53661005 17.27853176 18.3475724 20.50527766 20.109375 23.765625 C21 26 21 26 20 29 C19.54109375 28.04738281 19.0821875 27.09476562 18.609375 26.11328125 C17.98991026 24.84619428 17.37010019 23.5792761 16.75 22.3125 C16.44964844 21.68666016 16.14929688 21.06082031 15.83984375 20.41601562 C12.71581443 14.06825393 9.39253315 9.91689513 3.25 6.1875 C2.26515625 5.58292969 1.2803125 4.97835938 0.265625 4.35546875 C-0.48203125 3.90816406 -1.2296875 3.46085937 -2 3 C-1.34 2.67 -0.68 2.34 0 2 C0 1.34 0 0.68 0 0 Z " fill="#56C5F3" transform="translate(494,449)"/>
<path d="M0 0 C0 0.33 0 0.66 0 1 C-0.6290625 1.13535156 -1.258125 1.27070313 -1.90625 1.41015625 C-9.78450518 3.39158489 -15.35574636 6.5864769 -19.60546875 13.6796875 C-20.82520656 16.09183007 -21.95671044 18.50713984 -23 21 C-24.15957207 17.52128379 -23.77456651 16.65780355 -22.5625 13.3125 C-22.27503906 12.50425781 -21.98757812 11.69601562 -21.69140625 10.86328125 C-21.46324219 10.24839844 -21.23507813 9.63351562 -21 9 C-20.01 9 -19.02 9 -18 9 C-18 8.01 -18 7.02 -18 6 C-17.01 6 -16.02 6 -15 6 C-15 4.35 -15 2.7 -15 1 C-9.9752761 0.37470103 -5.07471573 -0.13012092 0 0 Z " fill="#1A80EF" transform="translate(184,359)"/>
<path d="M0 0 C0.33 0 0.66 0 1 0 C1.26554688 1.02480469 1.53109375 2.04960937 1.8046875 3.10546875 C2.16129028 4.46618989 2.51807051 5.82686453 2.875 7.1875 C3.04902344 7.86103516 3.22304687 8.53457031 3.40234375 9.22851562 C4.18109517 12.18488675 4.97954511 14.95546932 6.2578125 17.73828125 C7 20 7 20 6.125 22.3125 C5.75375 22.869375 5.3825 23.42625 5 24 C4.18243762 21.93950145 3.37115266 19.87651147 2.5625 17.8125 C2.11003906 16.66394531 1.65757812 15.51539063 1.19140625 14.33203125 C-0.70485241 9.02872425 -1.1594297 5.53949746 0 0 Z " fill="#409FF2" transform="translate(199,468)"/>
<path d="M0 0 C3.46035296 0.24818653 6.91751074 0.52736939 10.375 0.8125 C11.85226562 0.91788086 11.85226562 0.91788086 13.359375 1.02539062 C14.30039062 1.10595703 15.24140625 1.18652344 16.2109375 1.26953125 C17.08024902 1.33760986 17.94956055 1.40568848 18.84521484 1.47583008 C21 2 21 2 23 5 C21.35 5.66 19.7 6.32 18 7 C18 6.34 18 5.68 18 5 C16.73542969 5.01740234 16.73542969 5.01740234 15.4453125 5.03515625 C14.34960938 5.04417969 13.25390625 5.05320312 12.125 5.0625 C11.03445313 5.07410156 9.94390625 5.08570313 8.8203125 5.09765625 C6 5 6 5 4 4 C4 3.34 4 2.68 4 2 C2.68 1.67 1.36 1.34 0 1 C0 0.67 0 0.34 0 0 Z " fill="#318ADE" transform="translate(464,529)"/>
<path d="M0 0 C0 2.33333333 0 4.66666667 0 7 C-0.99 7.495 -0.99 7.495 -2 8 C-3.09166275 9.93330603 -3.09166275 9.93330603 -4 12 C-4.33 12.66 -4.66 13.32 -5 14 C-5.66 14 -6.32 14 -7 14 C-6.67 15.32 -6.34 16.64 -6 18 C-6.99 18.66 -7.98 19.32 -9 20 C-8.70853205 12.13036531 -5.6064489 5.6064489 0 0 Z " fill="#47B1F6" transform="translate(784,478)"/>
<path d="M0 0 C2.64018733 1.75515278 3.62442673 3.73851325 5.26171875 6.44140625 C7.28445731 9.12936667 8.79141595 11.0231036 12.10400391 11.94189453 C17.08882029 12.63533168 22.05486217 12.57283594 27.07421875 12.37890625 C27.07421875 12.70890625 27.07421875 13.03890625 27.07421875 13.37890625 C11.19023233 14.753482 11.19023233 14.753482 6.09765625 11.4453125 C1.07421875 5.7368608 1.07421875 5.7368608 1.07421875 2.37890625 C-0.57578125 2.37890625 -2.22578125 2.37890625 -3.92578125 2.37890625 C-3.92578125 1.71890625 -3.92578125 1.05890625 -3.92578125 0.37890625 C-1.92578125 -0.62109375 -1.92578125 -0.62109375 0 0 Z " fill="#02050B" transform="translate(506.92578125,541.62109375)"/>
<path d="M0 0 C0.33 0.66 0.66 1.32 1 2 C1.66 2 2.32 2 3 2 C6.96266503 7.52508724 10.23142885 13.79840063 13 20 C12.67 20.66 12.34 21.32 12 22 C0 5.4351585 0 5.4351585 0 0 Z " fill="#4DB2F2" transform="translate(259,411)"/>
<path d="M0 0 C1.98 0.99 3.96 1.98 6 3 C6 3.66 6 4.32 6 5 C6.99 5 7.98 5 9 5 C9 5.66 9 6.32 9 7 C10.918125 7.185625 10.918125 7.185625 12.875 7.375 C16.75 7.75 16.75 7.75 19 10 C16.12310936 11.19234985 15.06011094 11.02291478 12.08984375 9.890625 C11.04957031 9.34921875 10.00929687 8.8078125 8.9375 8.25 C7.89464844 7.71890625 6.85179687 7.1878125 5.77734375 6.640625 C3.4120647 5.24341375 1.69695704 4.13734382 0 2 C0 1.34 0 0.68 0 0 Z " fill="#0D50D0" transform="translate(159,620)"/>
<path d="M0 0 C0 0.33 0 0.66 0 1 C-0.845625 1.03738281 -1.69125 1.07476562 -2.5625 1.11328125 C-9.31064379 1.50436686 -14.82797163 2.21653623 -21 5 C-21.33 4.67 -21.66 4.34 -22 4 C-22.99 4.495 -22.99 4.495 -24 5 C-24.66 4.34 -25.32 3.68 -26 3 C-17.40490715 -0.75058597 -9.19378855 -0.28499689 0 0 Z " fill="#5AC6F3" transform="translate(485,434)"/>
<path d="M0 0 C5.0461211 4.20510092 6.86819397 8.86659159 9 15 C8.34 15.66 7.68 16.32 7 17 C5.82286337 14.9219935 4.65828026 12.83848217 3.5 10.75 C3.16613281 10.16347656 2.83226562 9.57695313 2.48828125 8.97265625 C0.63923194 5.61417893 0 3.93354216 0 0 Z " fill="#1D6DE6" transform="translate(226,535)"/>
<path d="M0 0 C0.66 0 1.32 0 2 0 C2.33 0.99 2.66 1.98 3 3 C1.60050651 5.50973885 0.17371593 7.82169398 -1.4375 10.1875 C-1.87126953 10.84169922 -2.30503906 11.49589844 -2.75195312 12.16992188 C-3.82545983 13.78608033 -4.9115597 15.39386099 -6 17 C-7 15 -7 15 -6.44140625 13.0546875 C-6.00634766 11.97574219 -6.00634766 11.97574219 -5.5625 10.875 C-5.27503906 10.15054688 -4.98757813 9.42609375 -4.69140625 8.6796875 C-4.46324219 8.12539063 -4.23507812 7.57109375 -4 7 C-3.34 7 -2.68 7 -2 7 C-1.855625 6.401875 -1.71125 5.80375 -1.5625 5.1875 C-1.1127561 3.43849596 -0.57107659 1.71322977 0 0 Z " fill="#1A69E6" transform="translate(277,540)"/>
<path d="M0 0 C1.66392045 0.67349161 3.33032028 1.3409159 5 2 C3.1875 3.5625 3.1875 3.5625 1 5 C0.01 4.67 -0.98 4.34 -2 4 C-2.33 3.34 -2.66 2.68 -3 2 C-3.99 3.485 -3.99 3.485 -5 5 C-5.66 5 -6.32 5 -7 5 C-7 5.66 -7 6.32 -7 7 C-8.32 7.33 -9.64 7.66 -11 8 C-10.265611 6.67870176 -9.51183106 5.36816829 -8.75 4.0625 C-8.33234375 3.33160156 -7.9146875 2.60070312 -7.484375 1.84765625 C-6 0 -6 0 -3.953125 -0.81640625 C-2 -1 -2 -1 0 0 Z " fill="#368FF3" transform="translate(837,523)"/>
<path d="M0 0 C1.39195915 4.17587745 -0.17676781 6.13474776 -2 10 C-3 7 -3 7 -2 3 C-4.31 4.65 -6.62 6.3 -9 8 C-9.66 7.67 -10.32 7.34 -11 7 C-9.68 5.68 -8.36 4.36 -7 3 C-7.33 2.34 -7.66 1.68 -8 1 C-5.07175348 0.02391783 -3.04386724 -0.08226668 0 0 Z " fill="#3A9EF4" transform="translate(296,480)"/>
<path d="M0 0 C0.33 1.32 0.66 2.64 1 4 C0.50628906 4.31453125 0.01257813 4.6290625 -0.49609375 4.953125 C-1.13675781 5.38109375 -1.77742188 5.8090625 -2.4375 6.25 C-3.07558594 6.66765625 -3.71367187 7.0853125 -4.37109375 7.515625 C-6.29902057 9.27248877 -6.61479436 10.46089803 -7 13 C-7.99 12.67 -8.98 12.34 -10 12 C-8.91239459 6.29007157 -6.22486888 4.25569192 -1.6796875 1.1015625 C-1.12539063 0.73804688 -0.57109375 0.37453125 0 0 Z " fill="#3B9AF4" transform="translate(295,467)"/>
<path d="M0 0 C0.99 0.66 1.98 1.32 3 2 C3 2.66 3 3.32 3 4 C2.34 4 1.68 4 1 4 C1 6.64 1 9.28 1 12 C0.01 12.33 -0.98 12.66 -2 13 C-2.33 13.66 -2.66 14.32 -3 15 C-2.8858134 13.06183265 -2.75826577 11.12444901 -2.625 9.1875 C-2.55539063 8.10855469 -2.48578125 7.02960938 -2.4140625 5.91796875 C-2 3 -2 3 0 0 Z " fill="#42A1F1" transform="translate(250,413)"/>
<path d="M0 0 C0.66 0 1.32 0 2 0 C0.37621488 4.72373854 -2.10993018 8.94181834 -5 13 C-5.33 13 -5.66 13 -6 13 C-6 10.03 -6 7.06 -6 4 C-5.01 4.33 -4.02 4.66 -3 5 C-3 4.34 -3 3.68 -3 3 C-2.34 3 -1.68 3 -1 3 C-0.67 2.01 -0.34 1.02 0 0 Z " fill="#4FB2F7" transform="translate(246,413)"/>
<path d="M0 0 C1.32 1.32 2.64 2.64 4 4 C-1.94 4 -7.88 4 -14 4 C-14.33 3.34 -14.66 2.68 -15 2 C-10.05 2 -5.1 2 0 2 C0 1.34 0 0.68 0 0 Z " fill="#37A7F1" transform="translate(531,550)"/>
<path d="M0 0 C0.66 0.33 1.32 0.66 2 1 C-9.52164009 11.55808656 -9.52164009 11.55808656 -15 16 C-15.66 15.67 -16.32 15.34 -17 15 C-11.70317171 9.44338176 -6.16853533 4.56928543 0 0 Z " fill="#3A9BF6" transform="translate(283,476)"/>
<path d="M0 0 C5.4903054 1.33909888 9.20717643 3.90695293 13 8 C14.4375 10.875 14.4375 10.875 15 13 C14.34 13 13.68 13 13 13 C11.6273318 11.02678947 10.29572383 9.02456848 9 7 C8.34 6.34 7.68 5.68 7 5 C6.34 5.66 5.68 6.32 5 7 C3.35 4.69 1.7 2.38 0 0 Z " fill="#1F7DF0" transform="translate(319,504)"/>
<path d="M0 0 C0.99 0 1.98 0 3 0 C3.28990619 5.21831143 1.84880302 7.72679547 -1 12 C-1.99 11.67 -2.98 11.34 -4 11 C-2.68 7.37 -1.36 3.74 0 0 Z " fill="#1F76E9" transform="translate(236,460)"/>
<path d="M0 0 C3.68881485 3.53156519 6.77382244 7.18534092 9.8125 11.3125 C10.21919922 11.86228516 10.62589844 12.41207031 11.04492188 12.97851562 C12.03368611 14.31625547 13.01738585 15.65773623 14 17 C13.67 17.66 13.34 18.32 13 19 C12.39671875 18.25234375 11.7934375 17.5046875 11.171875 16.734375 C10.37265625 15.74953125 9.5734375 14.7646875 8.75 13.75 C7.96109375 12.77546875 7.1721875 11.8009375 6.359375 10.796875 C4.11404311 8.01523205 4.11404311 8.01523205 1.703125 5.890625 C0 4 0 4 0 0 Z " fill="#41AEF0" transform="translate(296,449)"/>
<path d="M0 0 C2.64934011 2.64934011 4.32794935 4.89484856 6.25 8.0625 C7.06210937 9.37927734 7.06210937 9.37927734 7.890625 10.72265625 C8.25671875 11.47417969 8.6228125 12.22570312 9 13 C8.67 13.66 8.34 14.32 8 15 C7.01 13.68 6.02 12.36 5 11 C4.34 11.66 3.68 12.32 3 13 C2.01 8.71 1.02 4.42 0 0 Z " fill="#030815" transform="translate(258,413)"/>
<path d="M0 0 C7.18404854 0.26123813 11.32206314 2.70211724 17 7 C13.12375078 7 10.5439293 5.52755573 7 4 C4.22111387 3.30859478 4.22111387 3.30859478 2 3 C2 2.34 2 1.68 2 1 C1.34 0.67 0.68 0.34 0 0 Z " fill="#4FBAF1" transform="translate(732,468)"/>
<path d="M0 0 C4.82675589 2.41337795 7.69984002 5.86062408 11 10 C10.34 10.66 9.68 11.32 9 12 C8.38125 11.360625 7.7625 10.72125 7.125 10.0625 C5.17402388 7.96116416 5.17402388 7.96116416 3 7 C0 2.5 0 2.5 0 0 Z " fill="#177AED" transform="translate(358,404)"/>
<path d="M0 0 C0.99 0 1.98 0 3 0 C2.7525 1.216875 2.505 2.43375 2.25 3.6875 C1.77449455 7.25696088 1.86144326 7.78546053 3.9375 11 C4.9584375 11.99 4.9584375 11.99 6 13 C2.18315774 11.44499019 -0.19195732 8.96404505 -3 6 C-2.01 4.02 -1.02 2.04 0 0 Z " fill="#1662DD" transform="translate(231,473)"/>
<path d="M0 0 C1.11375 0.185625 2.2275 0.37125 3.375 0.5625 C6.82568861 1.31680657 6.82568861 1.31680657 9 0 C8.67 1.65 8.34 3.3 8 5 C5.69 5 3.38 5 1 5 C0.67 3.35 0.34 1.7 0 0 Z " fill="#0E4FC9" transform="translate(249,573)"/>
<path d="M0 0 C0 4.62 0 9.24 0 14 C-0.99 13.67 -1.98 13.34 -3 13 C-3 9.04 -3 5.08 -3 1 C-1 0 -1 0 0 0 Z " fill="#1351CD" transform="translate(134,554)"/>
<path d="M0 0 C0.66 0.33 1.32 0.66 2 1 C1.74438677 3.3431213 1.40729228 5.67843403 1 8 C0.01 8.495 0.01 8.495 -1 9 C-1.33 9.99 -1.66 10.98 -2 12 C-2.66 12.66 -3.32 13.32 -4 14 C-3.46148032 8.72250715 -2.22656164 4.74354436 0 0 Z " fill="#4BB4F3" transform="translate(430,461)"/>
<path d="M0 0 C0.66 0.33 1.32 0.66 2 1 C-1.34003602 5.32239956 -4.32751069 8.17477391 -9 11 C-7.44095325 7.17324889 -4.96833913 4.81992217 -2 2 C-1.34 1.34 -0.68 0.68 0 0 Z " fill="#4DB9F2" transform="translate(700,473)"/>
<path d="M0 0 C7.38461538 -0.36923077 7.38461538 -0.36923077 10.5 1.5 C10.995 1.995 11.49 2.49 12 3 C11.01 3.99 10.02 4.98 9 6 C9 5.34 9 4.68 9 4 C7.35 4 5.7 4 4 4 C3.67 3.34 3.34 2.68 3 2 C2.01 1.34 1.02 0.68 0 0 Z " fill="#4CA7EF" transform="translate(636,441)"/>
<path d="M0 0 C2 2 2 2 2 4 C0.54536519 4.38909985 -0.91391207 4.76088029 -2.375 5.125 C-3.18710937 5.33382812 -3.99921875 5.54265625 -4.8359375 5.7578125 C-5.55007813 5.83773437 -6.26421875 5.91765625 -7 6 C-7.66 5.34 -8.32 4.68 -9 4 C-3.375 2 -3.375 2 0 2 C0 1.34 0 0.68 0 0 Z " fill="#0D4CC9" transform="translate(345,625)"/>
<path d="M0 0 C0 4.1041911 -1.45843064 5.84021107 -4 9 C-6.75 9.875 -6.75 9.875 -9 10 C-6.72472047 5.44944094 -5.51206097 3.59443506 -1 1 C-0.67 0.67 -0.34 0.34 0 0 Z " fill="#4DAFF6" transform="translate(443,447)"/>
<path d="M0 0 C0.33 0.99 0.66 1.98 1 3 C1.680625 4.010625 2.36125 5.02125 3.0625 6.0625 C5 9 5 9 5 11 C2.21650144 9.9441902 0.99590854 8.99481748 -0.875 6.625 C-2 4 -2 4 -1.1875 1.6875 C-0.795625 1.130625 -0.40375 0.57375 0 0 Z " fill="#449FF3" transform="translate(274,414)"/>
<path d="M0 0 C0.66 0 1.32 0 2 0 C2 1.65 2 3.3 2 5 C1.01 5.495 1.01 5.495 0 6 C-0.495 6.845625 -0.99 7.69125 -1.5 8.5625 C-1.995 9.366875 -2.49 10.17125 -3 11 C-3.66 11 -4.32 11 -5 11 C-3.55049545 7.2089881 -1.84827434 3.6125362 0 0 Z " fill="#186AE8" transform="translate(325,531)"/>
<path d="M0 0 C0.66 0 1.32 0 2 0 C3 3 3 3 1.8125 5.625 C0 8 0 8 -2.1875 8.8125 C-2.785625 8.874375 -3.38375 8.93625 -4 9 C-4 8.34 -4 7.68 -4 7 C-3.01 7 -2.02 7 -1 7 C-1.020625 6.030625 -1.04125 5.06125 -1.0625 4.0625 C-1 1 -1 1 0 0 Z " fill="#1E6FE6" transform="translate(284,527)"/>
<path d="M0 0 C0.66 0.33 1.32 0.66 2 1 C1.21718695 2.33855056 0.42348123 3.67073644 -0.375 5 C-0.81585938 5.7425 -1.25671875 6.485 -1.7109375 7.25 C-2.34902344 8.11625 -2.34902344 8.11625 -3 9 C-3.66 9 -4.32 9 -5 9 C-5.3125 6.75 -5.3125 6.75 -5 4 C-2.5 1.6875 -2.5 1.6875 0 0 Z " fill="#439EF6" transform="translate(208,455)"/>
<path d="M0 0 C0 3.6461404 -0.08577934 5.97607286 -2.5625 8.75 C-3.2740625 9.36875 -3.2740625 9.36875 -4 10 C-5.125 6.25 -5.125 6.25 -4 4 C-3.34 4 -2.68 4 -2 4 C-1.34 2.68 -0.68 1.36 0 0 Z " fill="#429EEF" transform="translate(228,441)"/>
<path d="M0 0 C0.33 0 0.66 0 1 0 C2.33583899 4.84241633 3.25328119 8.93437617 3 14 C2.01 13.67 1.02 13.34 0 13 C0 8.71 0 4.42 0 0 Z " fill="#08152B" transform="translate(790,500)"/>
<path d="M0 0 C3.08089673 2.77280706 4.68775452 5.06326356 6 9 C3.525 8.01 3.525 8.01 1 7 C0.67 4.69 0.34 2.38 0 0 Z " fill="#44ACF4" transform="translate(290,440)"/>
<path d="M0 0 C-3.82320557 1.42258812 -6.91281305 2.24042276 -11 2 C-7.4586914 -2.07250489 -4.68503049 -2.8444828 0 0 Z " fill="#0E4CC7" transform="translate(340,620)"/>
<path d="M0 0 C0.66 0.66 1.32 1.32 2 2 C1.625 4.125 1.625 4.125 1 6 C0.34 6 -0.32 6 -1 6 C-1.33 7.32 -1.66 8.64 -2 10 C-2.6875 8.375 -2.6875 8.375 -3 6 C-1.5625 2.75 -1.5625 2.75 0 0 Z " fill="#1E6DE2" transform="translate(276,525)"/>
<path d="M0 0 C2.55934601 1.279673 2.6989233 2.24201036 3.6875 4.875 C3.95949219 5.57367188 4.23148437 6.27234375 4.51171875 6.9921875 C5 9 5 9 4 12 C3.67 10.68 3.34 9.36 3 8 C2.01 8.33 1.02 8.66 0 9 C0.185625 8.443125 0.37125 7.88625 0.5625 7.3125 C1.07551165 4.600867 0.6640724 2.65628961 0 0 Z " fill="#1B72ED" transform="translate(273,469)"/>
<path d="M0 0 C0.75 1.625 0.75 1.625 1 4 C-0.9375 7.25 -0.9375 7.25 -3 10 C-3.75 8.375 -3.75 8.375 -4 6 C-2.0625 2.75 -2.0625 2.75 0 0 Z " fill="#1056D7" transform="translate(262,566)"/>
<path d="M0 0 C0.66 0 1.32 0 2 0 C3.32 2.31 4.64 4.62 6 7 C5.34 7.66 4.68 8.32 4 9 C0 2.25 0 2.25 0 0 Z " fill="#1A6BE4" transform="translate(241,545)"/>
<path d="M0 0 C0.66 0.33 1.32 0.66 2 1 C1.46930939 4.82097239 0.50298434 7.06171403 -2 10 C-3.24546405 7.50907189 -2.7767578 6.58919267 -2 4 C-1.34 4 -0.68 4 0 4 C0 2.68 0 1.36 0 0 Z " fill="#061224" transform="translate(278,515)"/>
<path d="M0 0 C2 2 2 2 3 4 C-1.75 6.875 -1.75 6.875 -4 8 C-2.25 2.25 -2.25 2.25 0 0 Z " fill="#46ACF8" transform="translate(788,474)"/>
<path d="M0 0 C0.33 1.32 0.66 2.64 1 4 C0.34 4 -0.32 4 -1 4 C-1.66 5.32 -2.32 6.64 -3 8 C-3.66 7.01 -4.32 6.02 -5 5 C-4.67 4.34 -4.34 3.68 -4 3 C-3.01 3 -2.02 3 -1 3 C-0.67 2.01 -0.34 1.02 0 0 Z " fill="#48A4F5" transform="translate(220,437)"/>
<path d="M0 0 C6.52307692 0.49230769 6.52307692 0.49230769 8.9375 3.0625 C9.288125 3.701875 9.63875 4.34125 10 5 C9.01 5.495 9.01 5.495 8 6 C8 5.34 8 4.68 8 4 C6.865625 3.71125 5.73125 3.4225 4.5625 3.125 C3.386875 2.75375 2.21125 2.3825 1 2 C0.67 1.34 0.34 0.68 0 0 Z " fill="#45A5E7" transform="translate(744,475)"/>
<path d="M0 0 C1.43088528 2.86177057 0.59991697 4.93375773 0 8 C-0.99 8.33 -1.98 8.66 -3 9 C-3.33 8.01 -3.66 7.02 -4 6 C-2.0625 2.8125 -2.0625 2.8125 0 0 Z " fill="#050E1B" transform="translate(248,414)"/>
<path d="M0 0 C1.32 0.66 2.64 1.32 4 2 C3.690625 2.598125 3.38125 3.19625 3.0625 3.8125 C1.89790296 6.08956772 1.89790296 6.08956772 1 9 C0.34 8.34 -0.32 7.68 -1 7 C-0.625 3.375 -0.625 3.375 0 0 Z " fill="#0E4AC3" transform="translate(152,600)"/>
<path d="M0 0 C0.99 0.33 1.98 0.66 3 1 C0.60490662 3.89932357 -1.31245243 4.50168276 -5 5 C-3.35 3.35 -1.7 1.7 0 0 Z M3 0 C5 1 5 1 5 1 Z " fill="#04070D" transform="translate(311,567)"/>
<path d="M0 0 C2.52588702 2.36292656 3.88820837 3.66462511 5 7 C3.68 6.67 2.36 6.34 1 6 C0.67 4.02 0.34 2.04 0 0 Z " fill="#1864E3" transform="translate(235,551)"/>
<path d="M0 0 C0 3 0 3 -1.1875 4.6875 C-3.55741722 6.40364695 -5.14025666 6.23187108 -8 6 C-5.76152748 2.64229123 -5.59041601 2.7854035 -2 2 C-1.34 1.34 -0.68 0.68 0 0 Z " fill="#071324" transform="translate(270,503)"/>
<path d="M0 0 C0.99 0.66 1.98 1.32 3 2 C1.35 3.32 -0.3 4.64 -2 6 C-2.33 4.68 -2.66 3.36 -3 2 C-2.01 1.34 -1.02 0.68 0 0 Z " fill="#3594F0" transform="translate(281,488)"/>
<path d="M0 0 C1.5 1.1875 1.5 1.1875 3 3 C3.1875 5.6875 3.1875 5.6875 3 8 C0.9375 6.25 0.9375 6.25 -1 4 C-0.75 1.75 -0.75 1.75 0 0 Z " fill="#187CF3" transform="translate(301,409)"/>
<path d="M0 0 C2.50298434 2.93828597 3.46930939 5.17902761 4 9 C3.01 8.34 2.02 7.68 1 7 C1 6.01 1 5.02 1 4 C0.34 4 -0.32 4 -1 4 C-0.67 2.68 -0.34 1.36 0 0 Z " fill="#0D4FCF" transform="translate(164,607)"/>
<path d="M0 0 C1.65 0.99 3.3 1.98 5 3 C2.64046906 5.35953094 1.22104383 5.49141413 -2 6 C-2 5.01 -2 4.02 -2 3 C-1.34 3 -0.68 3 0 3 C0 2.01 0 1.02 0 0 Z " fill="#3791EF" transform="translate(651,529)"/>
<path d="M0 0 C0.99 0.33 1.98 0.66 3 1 C3.33 3.64 3.66 6.28 4 9 C1.49701566 6.06171403 0.53069061 3.82097239 0 0 Z " fill="#3BA4F5" transform="translate(205,493)"/>
<path d="M0 0 C1.485 0.99 1.485 0.99 3 2 C3.1875 4.625 3.1875 4.625 3 7 C1.68 5.68 0.36 4.36 -1 3 C-0.67 2.01 -0.34 1.02 0 0 Z " fill="#4EADEF" transform="translate(504,456)"/>
<path d="M0 0 C0.33 0 0.66 0 1 0 C1.33 3.3 1.66 6.6 2 10 C1.34 10 0.68 10 0 10 C-0.95024979 6.30458414 -0.95024979 3.69541586 0 0 Z " fill="#1979EC" transform="translate(298,399)"/>
</svg>
